<svg xmlns="http://www.w3.org/2000/svg" xmlns:xlink="http://www.w3.org/1999/xlink" viewBox="0 0 664.84 264.21"><defs><style>.cls-1{fill:none;}.cls-2{isolation:isolate;}.cls-3{fill:#00edff;}.cls-4{fill:url(#Degradado_sin_nombre_32);}.cls-5{fill:url(#Degradado_sin_nombre_41);}.cls-6{clip-path:url(#clip-path);}.cls-23,.cls-7{opacity:0.24;}.cls-10,.cls-100,.cls-101,.cls-102,.cls-103,.cls-104,.cls-105,.cls-106,.cls-107,.cls-108,.cls-109,.cls-11,.cls-110,.cls-111,.cls-112,.cls-113,.cls-114,.cls-115,.cls-116,.cls-117,.cls-118,.cls-12,.cls-13,.cls-14,.cls-15,.cls-16,.cls-17,.cls-18,.cls-19,.cls-20,.cls-23,.cls-24,.cls-25,.cls-26,.cls-27,.cls-28,.cls-29,.cls-30,.cls-31,.cls-32,.cls-33,.cls-34,.cls-35,.cls-36,.cls-37,.cls-38,.cls-39,.cls-40,.cls-41,.cls-42,.cls-43,.cls-44,.cls-45,.cls-46,.cls-47,.cls-48,.cls-49,.cls-50,.cls-51,.cls-52,.cls-53,.cls-54,.cls-55,.cls-56,.cls-57,.cls-58,.cls-59,.cls-60,.cls-61,.cls-62,.cls-63,.cls-64,.cls-65,.cls-66,.cls-67,.cls-68,.cls-69,.cls-7,.cls-70,.cls-71,.cls-72,.cls-73,.cls-74,.cls-75,.cls-76,.cls-77,.cls-78,.cls-79,.cls-80,.cls-81,.cls-82,.cls-83,.cls-85,.cls-86,.cls-87,.cls-88,.cls-89,.cls-9,.cls-90,.cls-91,.cls-92,.cls-93,.cls-94,.cls-95,.cls-96,.cls-97,.cls-98,.cls-99{mix-blend-mode:color-dodge;}.cls-8{fill:#87c6c8;}.cls-31,.cls-9{opacity:0.34;}.cls-10,.cls-32{opacity:0.44;}.cls-11,.cls-39{opacity:0.34;}.cls-12,.cls-40{opacity:0.2;}.cls-13,.cls-43{opacity:0.27;}.cls-14,.cls-47{opacity:0.36;}.cls-15,.cls-48{opacity:0.06;}.cls-16,.cls-62{opacity:0.52;}.cls-17{opacity:0.72;}.cls-18{opacity:0.33;}.cls-19,.cls-80{opacity:0.8;}.cls-20,.cls-81{opacity:0.38;}.cls-21{mix-blend-mode:screen;}.cls-22{fill:#79c3c5;}.cls-23,.cls-24,.cls-25,.cls-26,.cls-27,.cls-28,.cls-29,.cls-30,.cls-31,.cls-32,.cls-33,.cls-34,.cls-35,.cls-36,.cls-37,.cls-38,.cls-39,.cls-40,.cls-41,.cls-42,.cls-43,.cls-44,.cls-45,.cls-46,.cls-47,.cls-48,.cls-49,.cls-50,.cls-51,.cls-52,.cls-53,.cls-54,.cls-55,.cls-56,.cls-57,.cls-58,.cls-59,.cls-60,.cls-61,.cls-62,.cls-63,.cls-64,.cls-65,.cls-66,.cls-67,.cls-68,.cls-69,.cls-70,.cls-71,.cls-72,.cls-73,.cls-74,.cls-75,.cls-76,.cls-77,.cls-78,.cls-79,.cls-80,.cls-81,.cls-82,.cls-83{fill:#2d6466;}.cls-24,.cls-85{opacity:0.5;}.cls-25,.cls-86{opacity:0.88;}.cls-26{opacity:0.64;}.cls-27{opacity:0.14;}.cls-28{opacity:0.25;}.cls-29,.cls-88{opacity:0.05;}.cls-30{opacity:0.88;}.cls-33{opacity:0.67;}.cls-34,.cls-89{opacity:0.64;}.cls-35,.cls-90{opacity:0.65;}.cls-36,.cls-91{opacity:0.41;}.cls-37,.cls-92{opacity:0.19;}.cls-38,.cls-93{opacity:0.17;}.cls-41{opacity:0.15;}.cls-42{opacity:0.94;}.cls-44,.cls-94{opacity:0.78;}.cls-45,.cls-95{opacity:0.94;}.cls-46,.cls-96{opacity:0.5;}.cls-49,.cls-98{opacity:0.6;}.cls-50,.cls-99{opacity:0.79;}.cls-100,.cls-51{opacity:0.4;}.cls-101,.cls-52{opacity:0.14;}.cls-102,.cls-53{opacity:0.3;}.cls-54{opacity:0.58;}.cls-55{opacity:0.96;}.cls-56{opacity:0.83;}.cls-57{opacity:0.1;}.cls-58{opacity:0.94;}.cls-105,.cls-59{opacity:0.59;}.cls-106,.cls-60{opacity:0.41;}.cls-107,.cls-61{opacity:0.94;}.cls-63{opacity:0.35;}.cls-108,.cls-64{opacity:0.23;}.cls-109,.cls-65{opacity:0.13;}.cls-110,.cls-66{opacity:0.29;}.cls-111,.cls-67{opacity:0.79;}.cls-68{opacity:0.72;}.cls-69{opacity:0.2;}.cls-70{opacity:0.76;}.cls-71{opacity:0.17;}.cls-112,.cls-72{opacity:0.32;}.cls-113,.cls-73{opacity:0.77;}.cls-114,.cls-74{opacity:0.79;}.cls-75{opacity:0.71;}.cls-76{opacity:0.15;}.cls-116,.cls-77{opacity:0.14;}.cls-78{opacity:0.98;}.cls-79{opacity:0.79;}.cls-117,.cls-82{opacity:0.93;}.cls-118,.cls-83{opacity:0.94;}.cls-84{fill:#568082;}.cls-87{opacity:0.7;}.cls-97{opacity:0.76;}.cls-103{opacity:0.72;}.cls-104{opacity:0.64;}.cls-115{opacity:0.72;}.cls-119{fill:#a8a8a8;}.cls-120{clip-path:url(#clip-path-2);}.cls-121{font-size:87px;fill:#040a14;font-family:Mayor-Regular, Mayor;}.cls-122{font-size:120px;}.cls-123{fill:url(#Degradado_sin_nombre_47);}</style><linearGradient id="Degradado_sin_nombre_32" x1="54.38" y1="129.16" x2="218.6" y2="129.16" gradientUnits="userSpaceOnUse"><stop offset="0.01" stop-color="#1d2532"/><stop offset="0.13" stop-color="#0d202d"/><stop offset="0.43" stop-color="#0d202d"/><stop offset="0.64" stop-color="#071826"/><stop offset="1" stop-color="#000f1e"/></linearGradient><linearGradient id="Degradado_sin_nombre_41" x1="148.09" y1="126.13" x2="302.03" y2="126.13" gradientUnits="userSpaceOnUse"><stop offset="0.01" stop-color="#1d2532"/><stop offset="0.13" stop-color="#0d202d"/><stop offset="0.43" stop-color="#0d202d"/><stop offset="0.49" stop-color="#0b2532"/><stop offset="0.81" stop-color="#033e4c"/><stop offset="1" stop-color="#004755"/></linearGradient><clipPath id="clip-path"><path class="cls-1" d="M91.18,209.76v-.36q0-13.54,4.21-23.61T105.45,171q12.09-9.89,22-10.62l4.39-.36a36.15,36.15,0,0,1,18.67,4.94q8.42,4.94,8.42,13.72,0,4.4-4.76,7.32a25,25,0,0,0-8.23,8.79q-3.5,5.85-3.85,9.88l-.73,4q0,22.34,20.5,29.65,7.32,2.56,11.71,2.56,20.13,0,32.39-12.08t12.26-30.74q0-22.32-19-36.23a156.21,156.21,0,0,0-30.93-17.21q-16.65-6.95-22.51-9.88t-12.44-6.95a98.76,98.76,0,0,1-14.64-11.35q-17.56-15.37-17.57-41.54t14.28-44.1a80.37,80.37,0,0,1,13.24-13.34A124.53,124.53,0,0,0,92.94,223.84,55.25,55.25,0,0,1,91.18,209.76Z"/></clipPath><clipPath id="clip-path-2"><path class="cls-1" d="M299.23,148.73c-.61.47-1.41,1-2.39,1.67a24.23,24.23,0,0,1-3.39,1.83,26,26,0,0,1-4.19,1.44,19.42,19.42,0,0,1-4.93.6A10.85,10.85,0,0,1,279,153a11,11,0,0,1-3.69-3.23,14,14,0,0,1-2.16-4.53,18.93,18.93,0,0,1-.7-5.12,49.86,49.86,0,0,1,.46-6.63c.31-2.32.65-4.49,1-6.53s.74-3.8,1.06-5.3a18.18,18.18,0,0,0,.48-2.94,12.24,12.24,0,0,1,.16-1.89,7.63,7.63,0,0,1,.55-2,4.35,4.35,0,0,1,1.07-1.53,2.45,2.45,0,0,1,1.69-.62,5.84,5.84,0,0,1,2.09.33,4.75,4.75,0,0,1,1.41.81,3.53,3.53,0,0,1,.81,1,2.14,2.14,0,0,1,.26,1,11.74,11.74,0,0,1-.68,3.45q-.67,2.13-1.49,4.86c-.54,1.81-1,3.8-1.5,6a33.12,33.12,0,0,0-.68,6.79c0,1.17.07,2.41.2,3.71a13.13,13.13,0,0,0,.84,3.58,6.78,6.78,0,0,0,1.86,2.71,4.89,4.89,0,0,0,3.34,1.07,12.7,12.7,0,0,0,3.63-.55,22.75,22.75,0,0,0,3.62-1.4,29.82,29.82,0,0,0,3.3-1.87c1-.67,1.92-1.3,2.68-1.89s1.46-1.19,2.09-1.73l.63-.54c.16-2.6.25-5.22.25-7.87a124.26,124.26,0,0,0-45.05-95.86c0,.37,0,.73,0,1.11q0,13.17-7.5,22a24.17,24.17,0,0,1-19.22,8.78,27.84,27.84,0,0,1-10.79-2.2c-3.54-1.46-5.31-3.66-5.31-6.58L215.25,48q0-16.83-13.17-21.59-10.26-3.3-15.74-3.3H186a47.72,47.72,0,0,0-19,3.48q-8.06,3.48-11.71,8.6a44.87,44.87,0,0,0-8.78,22.33q0,13.91,12.44,24a125.15,125.15,0,0,0,30.19,17.57q17.76,7.5,35.51,16.28a84.57,84.57,0,0,1,30.19,25.26q12.43,16.47,12.45,39.52,0,29.37-12.1,49a124.31,124.31,0,0,0,45.54-81.58C300.21,148,299.74,148.36,299.23,148.73ZM282,91.45a6,6,0,0,1,1.25-1.58,7.05,7.05,0,0,1,1.87-1.23,5.42,5.42,0,0,1,2.35-.51,3.52,3.52,0,0,1,1,.24,8.48,8.48,0,0,1,1.34.62,6,6,0,0,1,1.16.83,1.28,1.28,0,0,1,.51.9,6.59,6.59,0,0,1-.18,1.28c-.11.55-.27,1.16-.46,1.8s-.4,1.28-.64,1.91-.45,1.17-.65,1.61a3.43,3.43,0,0,1-1,1.2,8.53,8.53,0,0,1-1.53,1,9.66,9.66,0,0,1-1.67.61,5.52,5.52,0,0,1-1.37.22.8.8,0,0,1-.61-.22,1.23,1.23,0,0,1-.33-.57,3.58,3.58,0,0,1-.15-.79c0-.29-.06-.57-.09-.83l-.22-1.37a2.84,2.84,0,0,0-.24-.68q-.16-.28-.33-.63a4.47,4.47,0,0,1-.31-.86,5.4,5.4,0,0,1-.13-1.34A3.3,3.3,0,0,1,282,91.45Z"/></clipPath><linearGradient id="Degradado_sin_nombre_47" x1="311.39" y1="115.41" x2="624.08" y2="115.41" gradientUnits="userSpaceOnUse"><stop offset="0" stop-color="#004755"/><stop offset="0.19" stop-color="#033e4c"/><stop offset="0.51" stop-color="#0b2532"/><stop offset="0.57" stop-color="#0d202d"/><stop offset="0.87" stop-color="#0d202d"/><stop offset="0.99" stop-color="#1d2532"/></linearGradient></defs><title>sinapsis</title><g class="cls-2"><g id="Capa_1" data-name="Capa 1"><path class="cls-3" d="M78.18,209.76v-.36q0-13.54,4.21-23.61T92.45,171q12.09-9.89,22-10.62l4.39-.36a36.15,36.15,0,0,1,18.67,4.94q8.42,4.94,8.42,13.72,0,4.4-4.76,7.32a25,25,0,0,0-8.23,8.79q-3.5,5.85-3.85,9.88l-.73,4q0,22.34,20.5,29.65,7.32,2.56,11.71,2.56,20.13,0,32.39-12.08t12.26-30.74q0-22.32-19-36.23a156.21,156.21,0,0,0-30.93-17.21q-16.65-6.95-22.51-9.88t-12.44-6.95a98.76,98.76,0,0,1-14.64-11.35Q88.07,101.06,88.06,74.89t14.28-44.1a80.37,80.37,0,0,1,13.24-13.34A124.53,124.53,0,0,0,79.94,223.84,55.25,55.25,0,0,1,78.18,209.76Z"/><path class="cls-4" d="M91.18,209.76v-.36q0-13.54,4.21-23.61T105.45,171q12.09-9.89,22-10.62l4.39-.36a36.15,36.15,0,0,1,18.67,4.94q8.42,4.94,8.42,13.72,0,4.4-4.76,7.32a25,25,0,0,0-8.23,8.79q-3.5,5.85-3.85,9.88l-.73,4q0,22.34,20.5,29.65,7.32,2.56,11.71,2.56,20.13,0,32.39-12.08t12.26-30.74q0-22.32-19-36.23a156.21,156.21,0,0,0-30.93-17.21q-16.65-6.95-22.51-9.88t-12.44-6.95a98.76,98.76,0,0,1-14.64-11.35q-17.56-15.37-17.57-41.54t14.28-44.1a80.37,80.37,0,0,1,13.24-13.34A124.53,124.53,0,0,0,92.94,223.84,55.25,55.25,0,0,1,91.18,209.76Z"/><path class="cls-5" d="M299.23,148.73c-.61.47-1.41,1-2.39,1.67a24.23,24.23,0,0,1-3.39,1.83,26,26,0,0,1-4.19,1.44,19.42,19.42,0,0,1-4.93.6A10.85,10.85,0,0,1,279,153a11,11,0,0,1-3.69-3.23,14,14,0,0,1-2.16-4.53,18.93,18.93,0,0,1-.7-5.12,49.86,49.86,0,0,1,.46-6.63c.31-2.32.65-4.49,1-6.53s.74-3.8,1.06-5.3a18.18,18.18,0,0,0,.48-2.94,12.24,12.24,0,0,1,.16-1.89,7.63,7.63,0,0,1,.55-2,4.35,4.35,0,0,1,1.07-1.53,2.45,2.45,0,0,1,1.69-.62,5.84,5.84,0,0,1,2.09.33,4.75,4.75,0,0,1,1.41.81,3.53,3.53,0,0,1,.81,1,2.14,2.14,0,0,1,.26,1,11.74,11.74,0,0,1-.68,3.45q-.67,2.13-1.49,4.86c-.54,1.81-1,3.8-1.5,6a33.12,33.12,0,0,0-.68,6.79c0,1.17.07,2.41.2,3.71a13.13,13.13,0,0,0,.84,3.58,6.78,6.78,0,0,0,1.86,2.71,4.89,4.89,0,0,0,3.34,1.07,12.7,12.7,0,0,0,3.63-.55,22.75,22.75,0,0,0,3.62-1.4,29.82,29.82,0,0,0,3.3-1.87c1-.67,1.92-1.3,2.68-1.89s1.46-1.19,2.09-1.73l.63-.54c.16-2.6.25-5.22.25-7.87a124.26,124.26,0,0,0-45.05-95.86c0,.37,0,.73,0,1.11q0,13.17-7.5,22a24.17,24.17,0,0,1-19.22,8.78,27.84,27.84,0,0,1-10.79-2.2c-3.54-1.46-5.31-3.66-5.31-6.58L215.25,48q0-16.83-13.17-21.59-10.26-3.3-15.74-3.3H186a47.72,47.72,0,0,0-19,3.48q-8.06,3.48-11.71,8.6a44.87,44.87,0,0,0-8.78,22.33q0,13.91,12.44,24a125.15,125.15,0,0,0,30.19,17.57q17.76,7.5,35.51,16.28a84.57,84.57,0,0,1,30.19,25.26q12.43,16.47,12.45,39.52,0,29.37-12.1,49a124.31,124.31,0,0,0,45.54-81.58C300.21,148,299.74,148.36,299.23,148.73ZM282,91.45a6,6,0,0,1,1.25-1.58,7.05,7.05,0,0,1,1.87-1.23,5.42,5.42,0,0,1,2.35-.51,3.52,3.52,0,0,1,1,.24,8.48,8.48,0,0,1,1.34.62,6,6,0,0,1,1.16.83,1.28,1.28,0,0,1,.51.9,6.59,6.59,0,0,1-.18,1.28c-.11.55-.27,1.16-.46,1.8s-.4,1.28-.64,1.91-.45,1.17-.65,1.61a3.43,3.43,0,0,1-1,1.2,8.53,8.53,0,0,1-1.53,1,9.66,9.66,0,0,1-1.67.61,5.52,5.52,0,0,1-1.37.22.8.8,0,0,1-.61-.22,1.23,1.23,0,0,1-.33-.57,3.58,3.58,0,0,1-.15-.79c0-.29-.06-.57-.09-.83l-.22-1.37a2.84,2.84,0,0,0-.24-.68q-.16-.28-.33-.63a4.47,4.47,0,0,1-.31-.86,5.4,5.4,0,0,1-.13-1.34A3.3,3.3,0,0,1,282,91.45Z"/></g><g id="Capa_1_copia" data-name="Capa 1 copia"><g class="cls-6"><g class="cls-7"><path class="cls-8" d="M402.33,46.57,378-34.68l27.34-2.93V41.88ZM379.27-33.79l23.37,78.11,1.79-2.76V-36.49Z"/></g><g id="triangle36" class="cls-9"><path class="cls-8" d="M259.91,209.91l-109.26-57.3,71-14.27ZM153.64,153.05l103.92,54.5-36.41-68.08Z"/></g><g id="triangle36-2" data-name="triangle36" class="cls-10"><path class="cls-8" d="M119.51,243.59l-22.3-107,55.56,15.86ZM98.46,138l21.29,102.13,31.76-87Z"/></g><g class="cls-11"><path class="cls-8" d="M120.05,248.39H58.16l-22-40.76,83.91,33.89Zm-61.36-1h60.44l0-5.14L38.33,209.58Z"/></g><g class="cls-12"><path class="cls-8" d="M284,248.39H251.76l6.72-41Zm-31.12-1h29.36L259,210.06Z"/></g><g class="cls-13"><path class="cls-8" d="M222.67,248.39H125.54l-6.9-6.8,141.57-33.73Zm-96.77-1h96.39l35-37.76L120.62,242.16Z"/></g><g id="triangle36-3" data-name="triangle36" class="cls-14"><path class="cls-8" d="M219.25,85.24,237.2-60.06,366.83-1ZM238-58.6l-17.54,142L364.66-.87Z"/></g><g id="triangle36-4" data-name="triangle36" class="cls-15"><path class="cls-8" d="M381.54,158.54l-160.6-19.17-1.59-55.83Zm-159.7-20.09,153.49,18.33-155-71.68Z"/></g><g id="triangle36-5" data-name="triangle36" class="cls-16"><path class="cls-8" d="M19.16,136.73l-.3-.37L-25.11,82,88.39,73.2ZM-23.16,82.91l42.42,52.4L85.59,74.44Z"/></g><g id="triangle36-6" data-name="triangle36" class="cls-17"><path class="cls-8" d="M20.57,136.66l-33.95-3.21-11-40.32Zm-33.24-4.16,30.51,2.88L-22.55,96.27Z"/></g><g id="triangle36-7" data-name="triangle36" class="cls-18"><path class="cls-8" d="M-35.67,235.46l22.42-103.69L38,208.87ZM-12.8,134.17l-21.58,99.75,70.89-25.58Z"/></g><g id="triangle36-8" data-name="triangle36" class="cls-19"><path class="cls-8" d="M221.89,140,205.1,125.25l15.13-43.5Zm-15.67-15.08,14.67,12.9-1.45-50.93Z"/></g><g id="triangle36-9" data-name="triangle36" class="cls-20"><path class="cls-8" d="M148.74,154l57-29.55,16.75,14.73Zm56.86-28.35-50,25.95,64.75-13Z"/></g><g class="cls-21"><path class="cls-22" d="M397.86,41.78a2.42,2.42,0,0,1,.36-3.18,2,2,0,0,1,2.92.4,2.41,2.41,0,0,1-.37,3.18A2,2,0,0,1,397.86,41.78Z"/><path class="cls-22" d="M351.85,112.9a2.4,2.4,0,0,1,.36-3.17,2,2,0,0,1,2.92.4,2.39,2.39,0,0,1-.37,3.16A2,2,0,0,1,351.85,112.9Z"/><path class="cls-22" d="M332.66,48.79a2.41,2.41,0,0,1,.37-3.18,2,2,0,0,1,2.91.4,2.4,2.4,0,0,1-.36,3.17A2,2,0,0,1,332.66,48.79Z"/><path class="cls-22" d="M219.15,28.59a2.39,2.39,0,0,1,.36-3.17,2,2,0,0,1,2.91.4,2.39,2.39,0,0,1-.36,3.17A2,2,0,0,1,219.15,28.59Z"/><path class="cls-22" d="M322.29,75.58a2.38,2.38,0,0,1,.36-3.17,2,2,0,0,1,2.91.4,2.41,2.41,0,0,1-.37,3.18A2,2,0,0,1,322.29,75.58Z"/><path class="cls-22" d="M332.66,48.79a2.41,2.41,0,0,1,.37-3.18,2,2,0,0,1,2.91.4,2.4,2.4,0,0,1-.36,3.17A2,2,0,0,1,332.66,48.79Z"/><path class="cls-22" d="M150.39,199.32a2.4,2.4,0,0,1,.37-3.17,2,2,0,0,1,2.91.39,2.42,2.42,0,0,1-.36,3.18A2,2,0,0,1,150.39,199.32Z"/><path class="cls-22" d="M236.17,244.3a2.41,2.41,0,0,1,.36-3.17,2,2,0,0,1,2.92.4,2.4,2.4,0,0,1-.37,3.17A2,2,0,0,1,236.17,244.3Z"/><path class="cls-22" d="M206.12,188.11a2.39,2.39,0,0,1,.36-3.17,2,2,0,0,1,2.92.4,2.41,2.41,0,0,1-.37,3.17A2,2,0,0,1,206.12,188.11Z"/><path class="cls-22" d="M150.39,199.32a2.4,2.4,0,0,1,.37-3.17,2,2,0,0,1,2.91.39,2.42,2.42,0,0,1-.36,3.18A2,2,0,0,1,150.39,199.32Z"/><path class="cls-22" d="M106.69,186.84a2.39,2.39,0,0,1,.37-3.17,2,2,0,0,1,2.91.4,2.41,2.41,0,0,1-.37,3.17A2,2,0,0,1,106.69,186.84Z"/><path class="cls-22" d="M57.94,244.2a2.4,2.4,0,0,1,.37-3.17,2,2,0,0,1,2.91.39,2.41,2.41,0,0,1-.36,3.18A2,2,0,0,1,57.94,244.2Z"/><path class="cls-22" d="M236.17,244.3a2.41,2.41,0,0,1,.36-3.17,2,2,0,0,1,2.92.4,2.4,2.4,0,0,1-.37,3.17A2,2,0,0,1,236.17,244.3Z"/><path class="cls-22" d="M236.17,244.3a2.41,2.41,0,0,1,.36-3.17,2,2,0,0,1,2.92.4,2.4,2.4,0,0,1-.37,3.17A2,2,0,0,1,236.17,244.3Z"/><path class="cls-22" d="M219.15,28.59a2.39,2.39,0,0,1,.36-3.17,2,2,0,0,1,2.91.4,2.39,2.39,0,0,1-.36,3.17A2,2,0,0,1,219.15,28.59Z"/><path class="cls-22" d="M204.87,144.18a2.39,2.39,0,0,1,.36-3.17,2,2,0,0,1,2.92.4,2.4,2.4,0,0,1-.37,3.17A2,2,0,0,1,204.87,144.18Z"/><path class="cls-22" d="M219.15,28.59a2.39,2.39,0,0,1,.36-3.17,2,2,0,0,1,2.91.4,2.39,2.39,0,0,1-.36,3.17A2,2,0,0,1,219.15,28.59Z"/><path class="cls-22" d="M322.29,75.58a2.38,2.38,0,0,1,.36-3.17,2,2,0,0,1,2.91.4,2.41,2.41,0,0,1-.37,3.18A2,2,0,0,1,322.29,75.58Z"/><path class="cls-22" d="M204.87,144.18a2.39,2.39,0,0,1,.36-3.17,2,2,0,0,1,2.92.4,2.4,2.4,0,0,1-.37,3.17A2,2,0,0,1,204.87,144.18Z"/><path class="cls-22" d="M206.12,188.11a2.39,2.39,0,0,1,.36-3.17,2,2,0,0,1,2.92.4,2.41,2.41,0,0,1-.37,3.17A2,2,0,0,1,206.12,188.11Z"/><path class="cls-22" d="M332.5,203.2a2.41,2.41,0,0,1,.36-3.17,2,2,0,0,1,2.91.4,2.39,2.39,0,0,1-.36,3.17A2,2,0,0,1,332.5,203.2Z"/><path class="cls-22" d="M387.83,131.92a2.39,2.39,0,0,1,.37-3.17,2,2,0,0,1,2.91.39,2.39,2.39,0,0,1-.37,3.17A2,2,0,0,1,387.83,131.92Z"/><path class="cls-22" d="M387.83,131.92a2.39,2.39,0,0,1,.37-3.17,2,2,0,0,1,2.91.39,2.39,2.39,0,0,1-.37,3.17A2,2,0,0,1,387.83,131.92Z"/><path class="cls-22" d="M8.54,142.7a2.41,2.41,0,0,1,.37-3.18,2,2,0,0,1,2.91.4,2.41,2.41,0,0,1-.37,3.18A2,2,0,0,1,8.54,142.7Z"/><path class="cls-22" d="M43.42,185.79a2.41,2.41,0,0,1,.36-3.17,2,2,0,0,1,2.91.4,2.38,2.38,0,0,1-.36,3.17A2,2,0,0,1,43.42,185.79Z"/><path class="cls-22" d="M98,135.74a2.39,2.39,0,0,1,.37-3.17,2,2,0,0,1,2.91.4,2.39,2.39,0,0,1-.36,3.17A2,2,0,0,1,98,135.74Z"/><path class="cls-22" d="M9.07,152.54a2.42,2.42,0,0,1,.37-3.18,2,2,0,0,1,2.91.4,2.39,2.39,0,0,1-.36,3.17A2,2,0,0,1,9.07,152.54Z"/><path class="cls-22" d="M17.48,183.34a2.4,2.4,0,0,1,.36-3.17,2,2,0,0,1,2.92.39,2.42,2.42,0,0,1-.37,3.17A2,2,0,0,1,17.48,183.34Z"/><path class="cls-22" d="M43.42,185.79a2.41,2.41,0,0,1,.36-3.17,2,2,0,0,1,2.91.4,2.38,2.38,0,0,1-.36,3.17A2,2,0,0,1,43.42,185.79Z"/><path class="cls-22" d="M57.94,244.2a2.4,2.4,0,0,1,.37-3.17,2,2,0,0,1,2.91.39,2.41,2.41,0,0,1-.36,3.18A2,2,0,0,1,57.94,244.2Z"/><path class="cls-22" d="M17.48,183.34a2.4,2.4,0,0,1,.36-3.17,2,2,0,0,1,2.92.39,2.42,2.42,0,0,1-.37,3.17A2,2,0,0,1,17.48,183.34Z"/><path class="cls-22" d="M193.46,177a2.39,2.39,0,0,1,.37-3.17,2,2,0,0,1,2.91.39,2.41,2.41,0,0,1-.37,3.17A2,2,0,0,1,193.46,177Z"/><path class="cls-22" d="M206.12,188.11a2.39,2.39,0,0,1,.36-3.17,2,2,0,0,1,2.92.4,2.41,2.41,0,0,1-.37,3.17A2,2,0,0,1,206.12,188.11Z"/><path class="cls-22" d="M204.87,144.18a2.39,2.39,0,0,1,.36-3.17,2,2,0,0,1,2.92.4,2.4,2.4,0,0,1-.37,3.17A2,2,0,0,1,204.87,144.18Z"/><path class="cls-22" d="M193.46,177a2.39,2.39,0,0,1,.37-3.17,2,2,0,0,1,2.91.39,2.41,2.41,0,0,1-.37,3.17A2,2,0,0,1,193.46,177Z"/><path class="cls-22" d="M150.39,199.32a2.4,2.4,0,0,1,.37-3.17,2,2,0,0,1,2.91.39,2.42,2.42,0,0,1-.36,3.18A2,2,0,0,1,150.39,199.32Z"/><path class="cls-22" d="M206.12,188.11a2.39,2.39,0,0,1,.36-3.17,2,2,0,0,1,2.92.4,2.41,2.41,0,0,1-.37,3.17A2,2,0,0,1,206.12,188.11Z"/></g><polygon id="triangle36-10" data-name="triangle36" class="cls-23" points="276.59 96.19 268.81 67.37 245.02 97.67 276.59 96.19"/><polygon id="triangle36-11" data-name="triangle36" class="cls-24" points="336.18 188.3 323.5 142.64 372.91 147.89 336.18 188.3"/><polygon id="triangle36-12" data-name="triangle36" class="cls-25" points="336.18 188.3 395.31 193.35 372.91 147.89 336.18 188.3"/><polygon class="cls-26" points="133.36 249.02 126.74 243.44 128.7 249.02 133.36 249.02"/><polygon class="cls-27" points="157.1 249.02 153.9 239.57 126.74 243.44 133.36 249.02 157.1 249.02"/><polygon id="triangle36-13" data-name="triangle36" class="cls-28" points="-13.11 125.41 33.53 144.38 9.05 156.79 -13.11 125.41"/><polygon id="triangle36-14" data-name="triangle36" class="cls-29" points="276.59 96.19 282.2 84.61 330.81 107.95 276.59 96.19"/><polygon id="triangle36-15" data-name="triangle36" class="cls-30" points="332.06 232.27 352.23 207.78 335.94 233.12 332.06 232.27"/><polygon id="triangle36-16" data-name="triangle36" class="cls-31" points="340.74 37.75 327.55 12.16 367.84 34.19 340.74 37.75"/><polygon id="triangle36-17" data-name="triangle36" class="cls-32" points="388.61 40.8 382.08 3.16 367.84 34.19 388.61 40.8"/><polygon id="triangle36-18" data-name="triangle36" class="cls-33" points="153.9 239.57 187.41 215.37 212.09 244.45 153.9 239.57"/><polygon id="triangle36-19" data-name="triangle36" class="cls-34" points="94.12 82.39 112.22 89.49 106.8 92.72 94.12 82.39"/><polygon id="triangle36-20" data-name="triangle36" class="cls-35" points="91.36 167.59 103.19 116.61 118.87 174.43 91.36 167.59"/><polygon id="triangle36-21" data-name="triangle36" class="cls-36" points="106.8 92.72 112.22 89.49 105.16 103.72 106.8 92.72"/><polygon id="triangle36-22" data-name="triangle36" class="cls-37" points="173.13 72.75 216.33 75.77 205.87 32.11 173.13 72.75"/><polygon id="triangle36-23" data-name="triangle36" class="cls-38" points="169.94 208.38 160.41 184.9 205.72 199.59 169.94 208.38"/><polygon class="cls-39" points="399.93 -9.28 384.56 -38.84 382.08 3.16 399.93 10.85 399.93 -9.28"/><polygon id="triangle36-24" data-name="triangle36" class="cls-40" points="327.55 12.16 334.46 -17.59 305.85 -23.65 327.55 12.16"/><polygon class="cls-41" points="72.64 249.02 63.89 242.09 62.4 249.02 72.64 249.02"/><polygon class="cls-42" points="211.54 249.02 212.09 244.45 207.62 249.02 211.54 249.02"/><polygon id="triangle36-25" data-name="triangle36" class="cls-43" points="327.55 12.16 382.08 3.16 361.13 -17.84 327.55 12.16"/><polygon id="triangle36-26" data-name="triangle36" class="cls-44" points="330.81 107.95 372.91 147.89 376.72 115.65 330.81 107.95"/><polygon class="cls-45" points="399.93 108.69 376.72 115.65 399.93 124.52 399.93 108.69"/><polygon id="triangle36-27" data-name="triangle36" class="cls-46" points="91.36 167.59 103.19 116.61 91.53 119.53 91.36 167.59"/><polygon id="triangle36-28" data-name="triangle36" class="cls-47" points="282.2 84.61 330.81 107.95 340.34 57.2 282.2 84.61"/><polygon id="triangle36-29" data-name="triangle36" class="cls-48" points="280.2 27.93 340.74 37.75 340.34 57.2 280.2 27.93"/><polygon id="triangle36-30" data-name="triangle36" class="cls-49" points="216.33 75.77 231.54 79.13 243.76 58.55 216.33 75.77"/><polygon id="triangle36-31" data-name="triangle36" class="cls-50" points="216.33 75.77 223.19 43.59 243.76 58.55 216.33 75.77"/><polygon id="triangle36-32" data-name="triangle36" class="cls-51" points="231.54 79.13 251.91 58.07 243.76 58.55 231.54 79.13"/><polygon id="triangle36-33" data-name="triangle36" class="cls-52" points="251.91 58.07 232.04 25.64 243.76 58.55 251.91 58.07"/><polygon id="triangle36-34" data-name="triangle36" class="cls-53" points="138.57 216.02 169.94 208.38 143.1 188.75 138.57 216.02"/><polygon id="triangle36-35" data-name="triangle36" class="cls-54" points="33.53 144.38 64.84 136.24 53.17 156.43 33.53 144.38"/><polygon class="cls-55" points="62.4 249.02 63.89 242.09 29.71 241 39.83 249.02 62.4 249.02"/><polygon id="triangle36-36" data-name="triangle36" class="cls-56" points="63.89 242.09 62.59 204.1 29.71 241 63.89 242.09"/><polygon id="triangle36-37" data-name="triangle36" class="cls-57" points="297.77 199.21 332.06 232.27 327.59 194.84 297.77 199.21"/><polygon id="triangle36-38" data-name="triangle36" class="cls-58" points="332.06 232.27 352.23 207.78 327.59 194.84 332.06 232.27"/><polygon id="triangle36-39" data-name="triangle36" class="cls-59" points="262.91 239.96 297.77 199.21 273.76 183.63 262.91 239.96"/><polygon id="triangle36-40" data-name="triangle36" class="cls-60" points="160.41 184.9 171.94 125.63 192.03 153.25 160.41 184.9"/><polygon id="triangle36-41" data-name="triangle36" class="cls-61" points="225.9 151.54 262.9 138.61 248.02 186.79 225.9 151.54"/><polygon class="cls-62" points="399.93 57.33 391.64 63.6 399.93 63.44 399.93 57.33"/><polygon class="cls-63" points="331.86 249.02 335.94 233.12 326.84 249.02 331.86 249.02"/><polygon id="triangle36-42" data-name="triangle36" class="cls-64" points="103.19 116.61 105.16 103.72 123.37 112.94 103.19 116.61"/><polygon id="triangle36-43" data-name="triangle36" class="cls-65" points="105.16 103.72 112.22 89.49 123.37 112.94 105.16 103.72"/><polygon id="triangle36-44" data-name="triangle36" class="cls-66" points="112.22 89.49 134.78 77.86 123.37 112.94 112.22 89.49"/><polygon id="triangle36-45" data-name="triangle36" class="cls-67" points="171.94 125.63 178.26 109.17 123.37 112.94 171.94 125.63"/><polygon id="triangle36-46" data-name="triangle36" class="cls-68" points="126.74 243.44 116.12 209.76 103.94 226.47 126.74 243.44"/><polygon id="triangle36-47" data-name="triangle36" class="cls-69" points="76.29 233.16 103.94 226.47 67.08 204.25 76.29 233.16"/><polygon id="triangle36-48" data-name="triangle36" class="cls-70" points="62.59 204.1 57.69 160.94 67.08 204.25 62.59 204.1"/><polygon id="triangle36-49" data-name="triangle36" class="cls-71" points="103.94 226.47 116.12 209.76 67.08 204.25 103.94 226.47"/><polygon id="triangle36-50" data-name="triangle36" class="cls-72" points="118.87 174.43 143.1 188.75 115.78 193.56 118.87 174.43"/><polygon id="triangle36-51" data-name="triangle36" class="cls-73" points="64.84 136.24 91.53 119.53 66.75 105.59 64.84 136.24"/><polygon id="triangle36-52" data-name="triangle36" class="cls-74" points="93.22 81.1 94.12 82.39 66.75 105.59 93.22 81.1"/><polygon id="triangle36-53" data-name="triangle36" class="cls-75" points="216.25 243.74 205.72 199.59 227.96 193.38 216.25 243.74"/><polygon class="cls-76" points="399.93 226.99 359.58 219.1 335.94 233.12 399.93 230.62 399.93 226.99"/><polygon id="triangle36-54" data-name="triangle36" class="cls-77" points="327.59 194.84 336.18 188.3 309.46 171.6 327.59 194.84"/><polygon id="triangle36-55" data-name="triangle36" class="cls-78" points="29.71 241 21.3 220.3 44.45 198.12 29.71 241"/><polygon id="triangle36-56" data-name="triangle36" class="cls-79" points="29.71 241 62.59 204.1 44.45 198.12 29.71 241"/><polygon id="triangle36-57" data-name="triangle36" class="cls-80" points="340.34 57.2 340.74 37.75 346.58 42.99 340.34 57.2"/><polygon id="triangle36-58" data-name="triangle36" class="cls-81" points="340.74 37.75 367.84 34.19 346.58 42.99 340.74 37.75"/><polygon id="triangle36-59" data-name="triangle36" class="cls-82" points="216.33 75.77 231.54 79.13 223.85 80.66 216.33 75.77"/><polygon id="triangle36-60" data-name="triangle36" class="cls-83" points="178.26 109.17 216.33 75.77 223.85 80.66 178.26 109.17"/><polygon id="triangle36-61" data-name="triangle36" class="cls-23" points="276.59 96.19 268.81 67.37 245.02 97.67 276.59 96.19"/><polygon id="triangle36-62" data-name="triangle36" class="cls-24" points="336.18 188.3 323.5 142.64 372.91 147.89 336.18 188.3"/><polygon id="triangle36-63" data-name="triangle36" class="cls-25" points="336.18 188.3 395.31 193.35 372.91 147.89 336.18 188.3"/><polygon class="cls-26" points="133.36 249.02 126.74 243.44 128.7 249.02 133.36 249.02"/><polygon class="cls-27" points="157.1 249.02 153.9 239.57 126.74 243.44 133.36 249.02 157.1 249.02"/><polygon id="triangle36-64" data-name="triangle36" class="cls-28" points="-13.11 125.41 33.53 144.38 9.05 156.79 -13.11 125.41"/><polygon id="triangle36-65" data-name="triangle36" class="cls-29" points="276.59 96.19 282.2 84.61 330.81 107.95 276.59 96.19"/><polygon id="triangle36-66" data-name="triangle36" class="cls-30" points="332.06 232.27 352.23 207.78 335.94 233.12 332.06 232.27"/><polygon id="triangle36-67" data-name="triangle36" class="cls-31" points="340.74 37.75 327.55 12.16 367.84 34.19 340.74 37.75"/><polygon id="triangle36-68" data-name="triangle36" class="cls-32" points="388.61 40.8 382.08 3.16 367.84 34.19 388.61 40.8"/><polygon id="triangle36-69" data-name="triangle36" class="cls-33" points="153.9 239.57 187.41 215.37 212.09 244.45 153.9 239.57"/><polygon id="triangle36-70" data-name="triangle36" class="cls-34" points="94.12 82.39 112.22 89.49 106.8 92.72 94.12 82.39"/><polygon id="triangle36-71" data-name="triangle36" class="cls-35" points="91.36 167.59 103.19 116.61 118.87 174.43 91.36 167.59"/><polygon id="triangle36-72" data-name="triangle36" class="cls-36" points="106.8 92.72 112.22 89.49 105.16 103.72 106.8 92.72"/><polygon id="triangle36-73" data-name="triangle36" class="cls-37" points="173.13 72.75 216.33 75.77 205.87 32.11 173.13 72.75"/><polygon id="triangle36-74" data-name="triangle36" class="cls-38" points="169.94 208.38 160.41 184.9 205.72 199.59 169.94 208.38"/><polygon class="cls-39" points="399.93 -9.28 384.56 -38.84 382.08 3.16 399.93 10.85 399.93 -9.28"/><polygon id="triangle36-75" data-name="triangle36" class="cls-40" points="327.55 12.16 334.46 -17.59 305.85 -23.65 327.55 12.16"/><polygon class="cls-41" points="72.64 249.02 63.89 242.09 62.4 249.02 72.64 249.02"/><polygon class="cls-42" points="211.54 249.02 212.09 244.45 207.62 249.02 211.54 249.02"/><polygon id="triangle36-76" data-name="triangle36" class="cls-43" points="327.55 12.16 382.08 3.16 361.13 -17.84 327.55 12.16"/><polygon id="triangle36-77" data-name="triangle36" class="cls-44" points="330.81 107.95 372.91 147.89 376.72 115.65 330.81 107.95"/><polygon class="cls-45" points="399.93 108.69 376.72 115.65 399.93 124.52 399.93 108.69"/><polygon id="triangle36-78" data-name="triangle36" class="cls-46" points="91.36 167.59 103.19 116.61 91.53 119.53 91.36 167.59"/><polygon id="triangle36-79" data-name="triangle36" class="cls-47" points="282.2 84.61 330.81 107.95 340.34 57.2 282.2 84.61"/><polygon id="triangle36-80" data-name="triangle36" class="cls-48" points="280.2 27.93 340.74 37.75 340.34 57.2 280.2 27.93"/><polygon id="triangle36-81" data-name="triangle36" class="cls-49" points="216.33 75.77 231.54 79.13 243.76 58.55 216.33 75.77"/><polygon id="triangle36-82" data-name="triangle36" class="cls-50" points="216.33 75.77 223.19 43.59 243.76 58.55 216.33 75.77"/><polygon id="triangle36-83" data-name="triangle36" class="cls-51" points="231.54 79.13 251.91 58.07 243.76 58.55 231.54 79.13"/><polygon id="triangle36-84" data-name="triangle36" class="cls-52" points="251.91 58.07 232.04 25.64 243.76 58.55 251.91 58.07"/><polygon id="triangle36-85" data-name="triangle36" class="cls-53" points="138.57 216.02 169.94 208.38 143.1 188.75 138.57 216.02"/><polygon id="triangle36-86" data-name="triangle36" class="cls-54" points="33.53 144.38 64.84 136.24 53.17 156.43 33.53 144.38"/><polygon class="cls-55" points="62.4 249.02 63.89 242.09 29.71 241 39.83 249.02 62.4 249.02"/><polygon id="triangle36-87" data-name="triangle36" class="cls-56" points="63.89 242.09 62.59 204.1 29.71 241 63.89 242.09"/><polygon id="triangle36-88" data-name="triangle36" class="cls-57" points="297.77 199.21 332.06 232.27 327.59 194.84 297.77 199.21"/><polygon id="triangle36-89" data-name="triangle36" class="cls-58" points="332.06 232.27 352.23 207.78 327.59 194.84 332.06 232.27"/><polygon id="triangle36-90" data-name="triangle36" class="cls-59" points="262.91 239.96 297.77 199.21 273.76 183.63 262.91 239.96"/><polygon id="triangle36-91" data-name="triangle36" class="cls-60" points="160.41 184.9 171.94 125.63 192.03 153.25 160.41 184.9"/><polygon id="triangle36-92" data-name="triangle36" class="cls-61" points="225.9 151.54 262.9 138.61 248.02 186.79 225.9 151.54"/><polygon class="cls-62" points="399.93 57.33 391.64 63.6 399.93 63.44 399.93 57.33"/><polygon class="cls-63" points="331.86 249.02 335.94 233.12 326.84 249.02 331.86 249.02"/><polygon id="triangle36-93" data-name="triangle36" class="cls-64" points="103.19 116.61 105.16 103.72 123.37 112.94 103.19 116.61"/><polygon id="triangle36-94" data-name="triangle36" class="cls-65" points="105.16 103.72 112.22 89.49 123.37 112.94 105.16 103.72"/><polygon id="triangle36-95" data-name="triangle36" class="cls-66" points="112.22 89.49 134.78 77.86 123.37 112.94 112.22 89.49"/><polygon id="triangle36-96" data-name="triangle36" class="cls-67" points="171.94 125.63 178.26 109.17 123.37 112.94 171.94 125.63"/><polygon id="triangle36-97" data-name="triangle36" class="cls-68" points="126.74 243.44 116.12 209.76 103.94 226.47 126.74 243.44"/><polygon id="triangle36-98" data-name="triangle36" class="cls-69" points="76.29 233.16 103.94 226.47 67.08 204.25 76.29 233.16"/><polygon id="triangle36-99" data-name="triangle36" class="cls-70" points="62.59 204.1 57.69 160.94 67.08 204.25 62.59 204.1"/><polygon id="triangle36-100" data-name="triangle36" class="cls-71" points="103.94 226.47 116.12 209.76 67.08 204.25 103.94 226.47"/><polygon id="triangle36-101" data-name="triangle36" class="cls-72" points="118.87 174.43 143.1 188.75 115.78 193.56 118.87 174.43"/><polygon id="triangle36-102" data-name="triangle36" class="cls-73" points="64.84 136.24 91.53 119.53 66.75 105.59 64.84 136.24"/><polygon id="triangle36-103" data-name="triangle36" class="cls-74" points="93.22 81.1 94.12 82.39 66.75 105.59 93.22 81.1"/><polygon id="triangle36-104" data-name="triangle36" class="cls-75" points="216.25 243.74 205.72 199.59 227.96 193.38 216.25 243.74"/><polygon class="cls-76" points="399.93 226.99 359.58 219.1 335.94 233.12 399.93 230.62 399.93 226.99"/><polygon id="triangle36-105" data-name="triangle36" class="cls-77" points="327.59 194.84 336.18 188.3 309.46 171.6 327.59 194.84"/><polygon id="triangle36-106" data-name="triangle36" class="cls-78" points="29.71 241 21.3 220.3 44.45 198.12 29.71 241"/><polygon id="triangle36-107" data-name="triangle36" class="cls-79" points="29.71 241 62.59 204.1 44.45 198.12 29.71 241"/><polygon id="triangle36-108" data-name="triangle36" class="cls-80" points="340.34 57.2 340.74 37.75 346.58 42.99 340.34 57.2"/><polygon id="triangle36-109" data-name="triangle36" class="cls-81" points="340.74 37.75 367.84 34.19 346.58 42.99 340.74 37.75"/><polygon id="triangle36-110" data-name="triangle36" class="cls-82" points="216.33 75.77 231.54 79.13 223.85 80.66 216.33 75.77"/><polygon id="triangle36-111" data-name="triangle36" class="cls-83" points="178.26 109.17 216.33 75.77 223.85 80.66 178.26 109.17"/><g id="triangle36-112" data-name="triangle36" class="cls-7"><path class="cls-84" d="M213.29,133.44l30.58-38.95,10,37.06Zm30.23-37.22L215,132.57l37.87-1.77Z"/></g><g id="triangle36-113" data-name="triangle36" class="cls-85"><path class="cls-84" d="M327.22,246.43l-16.1-58,62.75,6.68Zm-15-57.09,15.4,55.5,44.64-49.11Z"/></g><g class="cls-86"><path class="cls-84" d="M400.1,249.42H367.05L326.58,246l46.58-51.24Zm-71.86-4.11,38.84,3.32h31.75L373,196.12Z"/></g><g id="triangle36-114" data-name="triangle36" class="cls-87"><path class="cls-84" d="M49.43,123.4l-23.51-9.22,28-29.82ZM27.3,113.87l21.47,8.42,4-35.65Z"/></g><g id="triangle36-115" data-name="triangle36" class="cls-88"><path class="cls-84" d="M323.94,146.89l-71.15-15.43,7.36-15.21Zm-70-16,63.6,13.79-57-27.39Z"/></g><g id="triangle36-116" data-name="triangle36" class="cls-9"><path class="cls-84" d="M332.85,59l-.12-.25-17-32.94L368,54.36ZM317.63,27.72,333.3,58.13l32.2-4.24Z"/></g><g id="triangle36-117" data-name="triangle36" class="cls-10"><path class="cls-84" d="M393.06,62.91l-26.85-8.54,18.42-40.13Zm-25.76-9,24.76,7.88-7.78-44.87Z"/></g><g id="triangle36-118" data-name="triangle36" class="cls-89"><path class="cls-84" d="M42.33,127.34,24.39,112.73l25.61,10Zm-13.51-12,13.59,11.06,5.8-3.46Z"/></g><g id="triangle36-119" data-name="triangle36" class="cls-90"><path class="cls-84" d="M57.92,228.94l-35.21-8.75,15.14-65.27Zm-34.26-9.33,33.14,8.24L37.91,158.16Z"/></g><g id="triangle36-120" data-name="triangle36" class="cls-91"><path class="cls-84" d="M39.57,143,42,126.62l8-4.8Zm3.16-15.85-1.64,11,7.06-14.23Z"/></g><g id="triangle36-121" data-name="triangle36" class="cls-92"><path class="cls-84" d="M179,106.23l-55-3.84,41.67-51.72Zm-53.4-4.53L178,105.37,165.28,52.42Z"/></g><g class="cls-93"><path class="cls-84" d="M135,249.42H111.81l-3.51-8.65Zm-22.65-.79H130L109.67,242Z"/></g><g class="cls-11"><path class="cls-84" d="M400.32,22.83l-16.28-7,3.19-53.9,13.09,25.29Zm-15.45-7.52,14.66,6.32V-12.69L387.85-35.17Z"/></g><g id="triangle36-122" data-name="triangle36" class="cls-12"><path class="cls-84" d="M316.85,27.79,288.91-18.33l36.85,7.81Zm-26.31-45,26,42.9L324.8-9.91Z"/></g><g id="triangle36-123" data-name="triangle36" class="cls-13"><path class="cls-84" d="M315.4,27.36l43-38.43,26.84,26.9Zm43-37.34L318,26.14,383.63,15.3Z"/></g><g id="triangle36-124" data-name="triangle36" class="cls-94"><path class="cls-84" d="M373.36,196.25l-53.83-51.07,58.7,9.85ZM322,146.39l50.81,48.2,4.59-38.91Z"/></g><g class="cls-95"><path class="cls-84" d="M400.32,164.39l-23.76-9.08,23.76-7.13Zm-21.31-9,20.52,7.84v-14Z"/></g><g id="triangle36-125" data-name="triangle36" class="cls-96"><path class="cls-84" d="M22.77,223.4,23,159.87,38.42,156Zm1-62.91-.2,55.9,13.76-59.31Z"/></g><g id="triangle36-126" data-name="triangle36" class="cls-97"><path class="cls-84" d="M267.32,3.88,217.84-20.68l49.94-10.57ZM220.23-20.38l46.31,23L267-30.27Z"/></g><g id="triangle36-127" data-name="triangle36" class="cls-14"><path class="cls-84" d="M321,146.37l-61.62-29.6L333.11,82Zm-59.78-29.59,59.19,28.43,11.6-61.8Z"/></g><g id="triangle36-128" data-name="triangle36" class="cls-15"><path class="cls-84" d="M333,83.35l-77.7-37.82,78.22,12.69ZM260.44,47.17,332.2,82.1l.48-23.21Z"/></g><g id="triangle36-129" data-name="triangle36" class="cls-98"><path class="cls-84" d="M197.57,110.41,177.44,106l36.3-22.78Zm-18.07-4.79,17.69,3.9,14.2-23.91Z"/></g><g id="triangle36-130" data-name="triangle36" class="cls-99"><path class="cls-84" d="M177.89,106.63l8.85-41.5,26.53,19.3Zm9.37-40.14L179.05,105l32.81-20.59Z"/></g><g id="triangle36-131" data-name="triangle36" class="cls-100"><path class="cls-84" d="M195.31,112.67l17-28.65,11.36-.68ZM212.8,84.78l-13.35,22.48,22.26-23Z"/></g><g id="triangle36-132" data-name="triangle36" class="cls-101"><path class="cls-84" d="M212.29,84.81,196.35,40.06l27,44.09ZM199.64,46.94,212.84,84l9.18-.55Z"/></g><g class="cls-102"><path class="cls-84" d="M92.56,249.42h-6l.65-3.92Zm-5.09-.79h2.67l-2.38-1.74Z"/></g><g id="triangle36-133" data-name="triangle36" class="cls-103"><path class="cls-84" d="M48.62,123.54l4.43-38.88,24.76,23.83Zm5-37.2-4.07,35.82L76.47,108.3Z"/></g><g id="triangle36-134" data-name="triangle36" class="cls-104"><path class="cls-84" d="M77.78,109.56,52,84.7l22,6.1Zm-23-23.26L76.5,107.23,73.27,91.44Z"/></g><g class="cls-105"><path class="cls-84" d="M265.34,249.42H247.59l2-10.24Zm-16.79-.79h14.12l-12.55-8.14Z"/></g><g id="triangle36-135" data-name="triangle36" class="cls-106"><path class="cls-84" d="M108.35,242.6l14.75-75.81,25.7,35.33-.24.24Zm15.18-73.88-13.91,71.49L147.76,202Z"/></g><g id="triangle36-136" data-name="triangle36" class="cls-107"><path class="cls-84" d="M218,244.7l-28.21-44.95L237,183.26Zm-27-44.53,26.76,42.65,18-58.3Z"/></g><g id="triangle36-137" data-name="triangle36" class="cls-108"><path class="cls-84" d="M37.41,157,40,139.93l24.16,12.24Zm3.23-15.9-2.28,14.93,23.37-4.25Z"/></g><g id="triangle36-138" data-name="triangle36" class="cls-109"><path class="cls-84" d="M63.81,152.86l-24-12.15,9.31-18.77Zm-23-12.5L62.1,151.11l-13-27.36Z"/></g><g id="triangle36-139" data-name="triangle36" class="cls-110"><path class="cls-84" d="M63,153.05,48.58,122.67,77.82,107.6ZM49.62,123l13.27,27.9,13.58-41.73Z"/></g><g id="triangle36-140" data-name="triangle36" class="cls-111"><path class="cls-84" d="M123.56,168.23l-63-16.47,71.24-4.9Zm-58.16-16,57.67,15.06,7.51-19.54Z"/></g><g class="cls-112"><path class="cls-84" d="M71.45,249.42H53.57l3.49-21.66L88.6,246.4Zm-17-.79H71.38l15-2.64L57.66,229Z"/></g><g id="triangle36-141" data-name="triangle36" class="cls-113"><path class="cls-84" d="M-10.22,181.68l2.46-39.47,31.93,17.95ZM-7,143.51l-2.29,36.68,32-20Z"/></g><g id="triangle36-142" data-name="triangle36" class="cls-114"><path class="cls-84" d="M-7.15,143.16l-.52-.59,33.23-30.74,1.58,2.26ZM25.43,113,6.24,130.77,26.08,114Z"/></g><g id="triangle36-143" data-name="triangle36" class="cls-115"><path class="cls-84" d="M73.83,91.82,64.1,83.73,79.54,69.61ZM65.3,83.7l8.08,6.72L78.12,72Z"/></g><g class="cls-116"><path class="cls-84" d="M323.1,249.42H312.85l-.12-.15-20.21-25.91,35.59,22.25Zm-9.86-.79h9.59l3.89-3L295.9,226.41Z"/></g><g id="triangle36-144" data-name="triangle36" class="cls-19"><path class="cls-84" d="M332.14,84.7l.56-27L340.82,65Zm1.32-25.28L333,80.75l6.85-15.59Z"/></g><g id="triangle36-145" data-name="triangle36" class="cls-20"><path class="cls-84" d="M340.26,65.52l-8.09-7.25,37.51-4.93ZM334,58.83l6.44,5.77,23.41-9.69Z"/></g><g id="triangle36-146" data-name="triangle36" class="cls-117"><path class="cls-84" d="M187.74,112.29l-11.31-7.35,22.88,5Zm-7.23-5.64,7.39,4.8,7.56-1.5Z"/></g><g id="triangle36-147" data-name="triangle36" class="cls-118"><path class="cls-84" d="M131.38,147.64l-.47-.64,47.53-41.7,10.11,6.58Zm47.13-41.35-43.4,38.08,52-32.5Z"/></g><g class="cls-21"><path class="cls-119" d="M245.84,97.09a1,1,0,1,1-1.39-.24A1,1,0,0,1,245.84,97.09Z"/><path class="cls-119" d="M269.63,66.8A1,1,0,1,1,268,67.94a1,1,0,1,1,1.64-1.14Z"/><path class="cls-119" d="M277.41,95.62a1,1,0,1,1-1.39-.25A1,1,0,0,1,277.41,95.62Z"/><path class="cls-119" d="M373.73,147.32a1,1,0,1,1-1.39-.25A1,1,0,0,1,373.73,147.32Z"/><path class="cls-119" d="M324.32,142.06a1,1,0,1,1-1.39-.24A1,1,0,0,1,324.32,142.06Z"/><path class="cls-119" d="M337,187.73a1,1,0,1,1-1.39-.25A1,1,0,0,1,337,187.73Z"/><path class="cls-119" d="M373.73,147.32a1,1,0,1,1-1.39-.25A1,1,0,0,1,373.73,147.32Z"/><path class="cls-119" d="M396.13,192.78a1,1,0,0,1-1.64,1.14,1,1,0,1,1,1.64-1.14Z"/><path class="cls-119" d="M337,187.73a1,1,0,1,1-1.39-.25A1,1,0,0,1,337,187.73Z"/><path class="cls-119" d="M127.56,242.87a1,1,0,0,1-1.64,1.15,1,1,0,1,1,1.64-1.15Z"/><path class="cls-119" d="M154.71,239a1,1,0,0,1-.24,1.39,1,1,0,1,1-1.15-1.64A1,1,0,0,1,154.71,239Z"/><path class="cls-119" d="M127.56,242.87a1,1,0,0,1-1.64,1.15,1,1,0,1,1,1.64-1.15Z"/><path class="cls-119" d="M9.87,156.22A1,1,0,1,1,8.48,156,1,1,0,0,1,9.87,156.22Z"/><path class="cls-119" d="M34.36,143.8a1,1,0,1,1-1.4-.25A1,1,0,0,1,34.36,143.8Z"/><path class="cls-119" d="M113,88.92a1,1,0,1,1-1.39-.25A1,1,0,0,1,113,88.92Z"/><path class="cls-119" d="M94.94,81.82a1,1,0,0,1-.25,1.39,1,1,0,0,1-1.15-1.64A1,1,0,0,1,94.94,81.82Z"/><path class="cls-119" d="M331.63,107.38a1,1,0,1,1-1.64,1.14,1,1,0,0,1,1.64-1.14Z"/><path class="cls-119" d="M283,84a1,1,0,0,1-.24,1.4,1,1,0,1,1-1.15-1.65A1,1,0,0,1,283,84Z"/><path class="cls-119" d="M277.41,95.62a1,1,0,1,1-1.39-.25A1,1,0,0,1,277.41,95.62Z"/><path class="cls-119" d="M336.76,232.55a1,1,0,1,1-1.39-.25A1,1,0,0,1,336.76,232.55Z"/><path class="cls-119" d="M353.05,207.21a1,1,0,0,1-.24,1.39,1,1,0,0,1-1.4-.24,1,1,0,0,1,.25-1.4A1,1,0,0,1,353.05,207.21Z"/><path class="cls-119" d="M332.88,231.69a1,1,0,0,1-1.65,1.15,1,1,0,0,1,1.65-1.15Z"/><path class="cls-119" d="M368.66,33.62a1,1,0,1,1-1.39-.25A1,1,0,0,1,368.66,33.62Z"/><path class="cls-119" d="M328.37,11.59a1,1,0,0,1-.25,1.39,1,1,0,0,1-1.39-.24,1,1,0,0,1,.24-1.4A1,1,0,0,1,328.37,11.59Z"/><path class="cls-119" d="M341.56,37.18a1,1,0,0,1-1.64,1.15,1,1,0,1,1,1.64-1.15Z"/><path class="cls-119" d="M368.66,33.62a1,1,0,1,1-1.39-.25A1,1,0,0,1,368.66,33.62Z"/><path class="cls-119" d="M382.9,2.59a1,1,0,1,1-1.64,1.14,1,1,0,0,1,.25-1.39A1,1,0,0,1,382.9,2.59Z"/><path class="cls-119" d="M389.43,40.22A1,1,0,1,1,388,40,1,1,0,0,1,389.43,40.22Z"/><path class="cls-119" d="M212.91,243.88a1,1,0,1,1-1.4-.25A1,1,0,0,1,212.91,243.88Z"/><path class="cls-119" d="M188.24,214.79a1,1,0,1,1-1.4-.25A1,1,0,0,1,188.24,214.79Z"/><path class="cls-119" d="M154.71,239a1,1,0,0,1-.24,1.39,1,1,0,1,1-1.15-1.64A1,1,0,0,1,154.71,239Z"/><path class="cls-119" d="M107.62,92.15a1,1,0,0,1-.24,1.39,1,1,0,0,1-1.4-.24,1,1,0,0,1,.25-1.4A1,1,0,0,1,107.62,92.15Z"/><path class="cls-119" d="M113,88.92a1,1,0,1,1-1.39-.25A1,1,0,0,1,113,88.92Z"/><path class="cls-119" d="M94.94,81.82a1,1,0,0,1-.25,1.39,1,1,0,0,1-1.15-1.64A1,1,0,0,1,94.94,81.82Z"/><path class="cls-119" d="M119.69,173.85a1,1,0,0,1-.25,1.4,1,1,0,0,1-1.39-.25,1,1,0,0,1,1.64-1.15Z"/><path class="cls-119" d="M104,116a1,1,0,1,1-1.39-.24A1,1,0,0,1,104,116Z"/><path class="cls-119" d="M92.18,167a1,1,0,0,1-.24,1.39,1,1,0,1,1-1.15-1.64A1,1,0,0,1,92.18,167Z"/><path class="cls-119" d="M106,103.15a1,1,0,0,1-.24,1.39,1,1,0,0,1-1.4-.24,1,1,0,0,1,.25-1.4A1,1,0,0,1,106,103.15Z"/><path class="cls-119" d="M113,88.92a1,1,0,1,1-1.39-.25A1,1,0,0,1,113,88.92Z"/><path class="cls-119" d="M107.62,92.15a1,1,0,0,1-.24,1.39,1,1,0,0,1-1.4-.24,1,1,0,0,1,.25-1.4A1,1,0,0,1,107.62,92.15Z"/><path class="cls-119" d="M206.69,31.54a1,1,0,0,1-1.64,1.15,1,1,0,1,1,1.64-1.15Z"/><path class="cls-119" d="M217.15,75.2a1,1,0,0,1-.25,1.39,1,1,0,0,1-1.39-.24,1,1,0,1,1,1.64-1.15Z"/><path class="cls-119" d="M174,72.18a1,1,0,1,1-1.64,1.14A1,1,0,0,1,174,72.18Z"/><path class="cls-119" d="M206.54,199a1,1,0,0,1-.25,1.39,1,1,0,0,1-1.39-.25,1,1,0,0,1,1.64-1.14Z"/><path class="cls-119" d="M161.23,184.32a1,1,0,1,1-1.64,1.15,1,1,0,0,1,1.64-1.15Z"/><path class="cls-119" d="M170.76,207.81a1,1,0,1,1-1.64,1.14,1,1,0,0,1,.25-1.39A1,1,0,0,1,170.76,207.81Z"/><path class="cls-119" d="M382.9,2.59a1,1,0,1,1-1.64,1.14,1,1,0,0,1,.25-1.39A1,1,0,0,1,382.9,2.59Z"/><path class="cls-119" d="M328.37,11.59a1,1,0,0,1-.25,1.39,1,1,0,0,1-1.39-.24,1,1,0,0,1,.24-1.4A1,1,0,0,1,328.37,11.59Z"/><path class="cls-119" d="M64.71,241.52a1,1,0,0,1-.25,1.39,1,1,0,1,1,.25-1.39Z"/><path class="cls-119" d="M212.91,243.88a1,1,0,1,1-1.4-.25A1,1,0,0,1,212.91,243.88Z"/><path class="cls-119" d="M382.9,2.59a1,1,0,1,1-1.64,1.14,1,1,0,0,1,.25-1.39A1,1,0,0,1,382.9,2.59Z"/><path class="cls-119" d="M328.37,11.59a1,1,0,0,1-.25,1.39,1,1,0,0,1-1.39-.24,1,1,0,0,1,.24-1.4A1,1,0,0,1,328.37,11.59Z"/><path class="cls-119" d="M31.43,96.81a1,1,0,0,1-.25,1.39A1,1,0,0,1,29.79,98a1,1,0,1,1,1.64-1.14Z"/><path class="cls-119" d="M31.43,96.81a1,1,0,0,1-.25,1.39A1,1,0,0,1,29.79,98a1,1,0,1,1,1.64-1.14Z"/><path class="cls-119" d="M377.54,115.08a1,1,0,1,1-1.39-.25A1,1,0,0,1,377.54,115.08Z"/><path class="cls-119" d="M373.73,147.32a1,1,0,1,1-1.39-.25A1,1,0,0,1,373.73,147.32Z"/><path class="cls-119" d="M331.63,107.38a1,1,0,1,1-1.64,1.14,1,1,0,0,1,1.64-1.14Z"/><path class="cls-119" d="M377.54,115.08a1,1,0,1,1-1.39-.25A1,1,0,0,1,377.54,115.08Z"/><path class="cls-119" d="M31.43,96.81a1,1,0,0,1-.25,1.39A1,1,0,0,1,29.79,98a1,1,0,1,1,1.64-1.14Z"/><path class="cls-119" d="M92.35,119a1,1,0,1,1-1.64,1.14,1,1,0,0,1,.25-1.39A1,1,0,0,1,92.35,119Z"/><path class="cls-119" d="M104,116a1,1,0,1,1-1.39-.24A1,1,0,0,1,104,116Z"/><path class="cls-119" d="M92.18,167a1,1,0,0,1-.24,1.39,1,1,0,1,1-1.15-1.64A1,1,0,0,1,92.18,167Z"/><path class="cls-119" d="M341.16,56.63a1,1,0,1,1-1.39-.25A1,1,0,0,1,341.16,56.63Z"/><path class="cls-119" d="M331.63,107.38a1,1,0,1,1-1.64,1.14,1,1,0,0,1,1.64-1.14Z"/><path class="cls-119" d="M283,84a1,1,0,0,1-.24,1.4,1,1,0,1,1-1.15-1.65A1,1,0,0,1,283,84Z"/><path class="cls-119" d="M341.16,56.63a1,1,0,1,1-1.39-.25A1,1,0,0,1,341.16,56.63Z"/><path class="cls-119" d="M341.56,37.18a1,1,0,0,1-1.64,1.15,1,1,0,1,1,1.64-1.15Z"/><path class="cls-119" d="M281,27.36a1,1,0,0,1-1.64,1.14A1,1,0,1,1,281,27.36Z"/><path class="cls-119" d="M244.58,58a1,1,0,0,1-1.64,1.15,1,1,0,0,1,.25-1.4A1,1,0,0,1,244.58,58Z"/><path class="cls-119" d="M232.36,78.55a1,1,0,1,1-1.39-.24A1,1,0,0,1,232.36,78.55Z"/><path class="cls-119" d="M217.15,75.2a1,1,0,0,1-.25,1.39,1,1,0,0,1-1.39-.24,1,1,0,1,1,1.64-1.15Z"/><path class="cls-119" d="M244.58,58a1,1,0,0,1-1.64,1.15,1,1,0,0,1,.25-1.4A1,1,0,0,1,244.58,58Z"/><path class="cls-119" d="M224,43a1,1,0,1,1-1.39-.25A1,1,0,0,1,224,43Z"/><path class="cls-119" d="M217.15,75.2a1,1,0,0,1-.25,1.39,1,1,0,0,1-1.39-.24,1,1,0,1,1,1.64-1.15Z"/><path class="cls-119" d="M244.58,58a1,1,0,0,1-1.64,1.15,1,1,0,0,1,.25-1.4A1,1,0,0,1,244.58,58Z"/><path class="cls-119" d="M252.73,57.49a1,1,0,0,1-.24,1.4,1,1,0,0,1-1.4-.25,1,1,0,0,1,.25-1.39A1,1,0,0,1,252.73,57.49Z"/><path class="cls-119" d="M232.36,78.55a1,1,0,1,1-1.39-.24A1,1,0,0,1,232.36,78.55Z"/><path class="cls-119" d="M244.58,58a1,1,0,0,1-1.64,1.15,1,1,0,0,1,.25-1.4A1,1,0,0,1,244.58,58Z"/><path class="cls-119" d="M232.86,25.07a1,1,0,0,1-.25,1.39,1,1,0,1,1-1.14-1.64A1,1,0,0,1,232.86,25.07Z"/><path class="cls-119" d="M252.73,57.49a1,1,0,0,1-.24,1.4,1,1,0,0,1-1.4-.25,1,1,0,0,1,.25-1.39A1,1,0,0,1,252.73,57.49Z"/><path class="cls-119" d="M143.92,188.18a1,1,0,1,1-1.39-.25A1,1,0,0,1,143.92,188.18Z"/><path class="cls-119" d="M170.76,207.81a1,1,0,1,1-1.64,1.14,1,1,0,0,1,.25-1.39A1,1,0,0,1,170.76,207.81Z"/><path class="cls-119" d="M139.39,215.45a1,1,0,0,1-.25,1.39A1,1,0,1,1,138,215.2,1,1,0,0,1,139.39,215.45Z"/><path class="cls-119" d="M54,155.85A1,1,0,1,1,52.35,157,1,1,0,0,1,54,155.85Z"/><path class="cls-119" d="M65.66,135.66a1,1,0,0,1-.25,1.4,1,1,0,0,1-1.39-.25,1,1,0,0,1,.24-1.39A1,1,0,0,1,65.66,135.66Z"/><path class="cls-119" d="M34.36,143.8a1,1,0,1,1-1.4-.25A1,1,0,0,1,34.36,143.8Z"/><path class="cls-119" d="M30.53,240.43a1,1,0,0,1-.25,1.39,1,1,0,1,1,.25-1.39Z"/><path class="cls-119" d="M64.71,241.52a1,1,0,0,1-.25,1.39,1,1,0,1,1,.25-1.39Z"/><path class="cls-119" d="M30.53,240.43a1,1,0,0,1-.25,1.39,1,1,0,1,1,.25-1.39Z"/><path class="cls-119" d="M63.41,203.52a1,1,0,1,1-1.64,1.15,1,1,0,0,1,1.64-1.15Z"/><path class="cls-119" d="M64.71,241.52a1,1,0,0,1-.25,1.39,1,1,0,1,1,.25-1.39Z"/><path class="cls-119" d="M328.41,194.27a1,1,0,1,1-1.64,1.14A1,1,0,0,1,327,194,1,1,0,0,1,328.41,194.27Z"/><path class="cls-119" d="M332.88,231.69a1,1,0,0,1-1.65,1.15,1,1,0,0,1,1.65-1.15Z"/><path class="cls-119" d="M298.59,198.64a1,1,0,0,1-.25,1.39,1,1,0,1,1,.25-1.39Z"/><path class="cls-119" d="M328.41,194.27a1,1,0,1,1-1.64,1.14A1,1,0,0,1,327,194,1,1,0,0,1,328.41,194.27Z"/><path class="cls-119" d="M353.05,207.21a1,1,0,0,1-.24,1.39,1,1,0,0,1-1.4-.24,1,1,0,0,1,.25-1.4A1,1,0,0,1,353.05,207.21Z"/><path class="cls-119" d="M332.88,231.69a1,1,0,0,1-1.65,1.15,1,1,0,0,1,1.65-1.15Z"/><path class="cls-119" d="M135.6,77.29A1,1,0,1,1,134,78.43a1,1,0,0,1,.25-1.39A1,1,0,0,1,135.6,77.29Z"/><path class="cls-119" d="M113,88.92a1,1,0,1,1-1.39-.25A1,1,0,0,1,113,88.92Z"/><path class="cls-119" d="M135.6,77.29A1,1,0,1,1,134,78.43a1,1,0,0,1,.25-1.39A1,1,0,0,1,135.6,77.29Z"/><path class="cls-119" d="M274.58,183.06a1,1,0,1,1-1.4-.25A1,1,0,0,1,274.58,183.06Z"/><path class="cls-119" d="M298.59,198.64a1,1,0,0,1-.25,1.39,1,1,0,1,1,.25-1.39Z"/><path class="cls-119" d="M263.73,239.38a1,1,0,1,1-1.39-.25A1,1,0,0,1,263.73,239.38Z"/><path class="cls-119" d="M192.85,152.68a1,1,0,1,1-1.39-.25A1,1,0,0,1,192.85,152.68Z"/><path class="cls-119" d="M172.76,125.06a1,1,0,0,1-1.64,1.14,1,1,0,0,1,.25-1.39A1,1,0,0,1,172.76,125.06Z"/><path class="cls-119" d="M161.23,184.32a1,1,0,1,1-1.64,1.15,1,1,0,0,1,1.64-1.15Z"/><path class="cls-119" d="M248.84,186.22a1,1,0,0,1-.25,1.39,1,1,0,1,1-1.14-1.64A1,1,0,0,1,248.84,186.22Z"/><path class="cls-119" d="M263.72,138a1,1,0,1,1-1.4-.25A1,1,0,0,1,263.72,138Z"/><path class="cls-119" d="M226.72,151a1,1,0,1,1-1.39-.25A1,1,0,0,1,226.72,151Z"/><path class="cls-119" d="M392.46,63a1,1,0,0,1-.24,1.39,1,1,0,0,1-1.4-.24,1,1,0,0,1,.25-1.4A1,1,0,0,1,392.46,63Z"/><path class="cls-119" d="M336.76,232.55a1,1,0,1,1-1.39-.25A1,1,0,0,1,336.76,232.55Z"/><path class="cls-119" d="M124.19,112.37a1,1,0,1,1-1.39-.25A1,1,0,0,1,124.19,112.37Z"/><path class="cls-119" d="M106,103.15a1,1,0,0,1-.24,1.39,1,1,0,0,1-1.4-.24,1,1,0,0,1,.25-1.4A1,1,0,0,1,106,103.15Z"/><path class="cls-119" d="M104,116a1,1,0,1,1-1.39-.24A1,1,0,0,1,104,116Z"/><path class="cls-119" d="M124.19,112.37a1,1,0,1,1-1.39-.25A1,1,0,0,1,124.19,112.37Z"/><path class="cls-119" d="M113,88.92a1,1,0,1,1-1.39-.25A1,1,0,0,1,113,88.92Z"/><path class="cls-119" d="M106,103.15a1,1,0,0,1-.24,1.39,1,1,0,0,1-1.4-.24,1,1,0,0,1,.25-1.4A1,1,0,0,1,106,103.15Z"/><path class="cls-119" d="M124.19,112.37a1,1,0,1,1-1.39-.25A1,1,0,0,1,124.19,112.37Z"/><path class="cls-119" d="M135.6,77.29A1,1,0,1,1,134,78.43a1,1,0,0,1,.25-1.39A1,1,0,0,1,135.6,77.29Z"/><path class="cls-119" d="M113,88.92a1,1,0,1,1-1.39-.25A1,1,0,0,1,113,88.92Z"/><path class="cls-119" d="M124.19,112.37a1,1,0,1,1-1.39-.25A1,1,0,0,1,124.19,112.37Z"/><path class="cls-119" d="M179.08,108.6a1,1,0,1,1-1.64,1.14,1,1,0,0,1,.25-1.39A1,1,0,0,1,179.08,108.6Z"/><path class="cls-119" d="M172.76,125.06a1,1,0,0,1-1.64,1.14,1,1,0,0,1,.25-1.39A1,1,0,0,1,172.76,125.06Z"/><path class="cls-119" d="M104.76,225.9a1,1,0,1,1-1.64,1.14,1,1,0,1,1,1.64-1.14Z"/><path class="cls-119" d="M116.94,209.19a1,1,0,0,1-1.64,1.15,1,1,0,1,1,1.64-1.15Z"/><path class="cls-119" d="M127.56,242.87a1,1,0,0,1-1.64,1.15,1,1,0,1,1,1.64-1.15Z"/><path class="cls-119" d="M67.9,203.68a1,1,0,1,1-1.64,1.14,1,1,0,0,1,1.64-1.14Z"/><path class="cls-119" d="M104.76,225.9a1,1,0,1,1-1.64,1.14,1,1,0,1,1,1.64-1.14Z"/><path class="cls-119" d="M77.11,232.59a1,1,0,1,1-1.39-.25A1,1,0,0,1,77.11,232.59Z"/><path class="cls-119" d="M67.9,203.68a1,1,0,1,1-1.64,1.14,1,1,0,0,1,1.64-1.14Z"/><path class="cls-119" d="M58.51,160.37a1,1,0,1,1-1.64,1.14,1,1,0,0,1,1.64-1.14Z"/><path class="cls-119" d="M63.41,203.52a1,1,0,1,1-1.64,1.15,1,1,0,0,1,1.64-1.15Z"/><path class="cls-119" d="M67.9,203.68a1,1,0,1,1-1.64,1.14,1,1,0,0,1,1.64-1.14Z"/><path class="cls-119" d="M116.94,209.19a1,1,0,0,1-1.64,1.15,1,1,0,1,1,1.64-1.15Z"/><path class="cls-119" d="M104.76,225.9a1,1,0,1,1-1.64,1.14,1,1,0,1,1,1.64-1.14Z"/><path class="cls-119" d="M116.6,193a1,1,0,1,1-1.39-.25A1,1,0,0,1,116.6,193Z"/><path class="cls-119" d="M143.92,188.18a1,1,0,1,1-1.39-.25A1,1,0,0,1,143.92,188.18Z"/><path class="cls-119" d="M119.69,173.85a1,1,0,0,1-.25,1.4,1,1,0,0,1-1.39-.25,1,1,0,0,1,1.64-1.15Z"/><path class="cls-119" d="M67.57,105a1,1,0,1,1-1.39-.25A1,1,0,0,1,67.57,105Z"/><path class="cls-119" d="M92.35,119a1,1,0,1,1-1.64,1.14,1,1,0,0,1,.25-1.39A1,1,0,0,1,92.35,119Z"/><path class="cls-119" d="M65.66,135.66a1,1,0,0,1-.25,1.4,1,1,0,0,1-1.39-.25,1,1,0,0,1,.24-1.39A1,1,0,0,1,65.66,135.66Z"/><path class="cls-119" d="M67.57,105a1,1,0,1,1-1.39-.25A1,1,0,0,1,67.57,105Z"/><path class="cls-119" d="M94.94,81.82a1,1,0,0,1-.25,1.39,1,1,0,0,1-1.15-1.64A1,1,0,0,1,94.94,81.82Z"/><path class="cls-119" d="M94,80.53a1,1,0,1,1-1.39-.25A1,1,0,0,1,94,80.53Z"/><path class="cls-119" d="M228.78,192.81a1,1,0,0,1-.24,1.39,1,1,0,0,1-1.4-.24,1,1,0,0,1,.25-1.4A1,1,0,0,1,228.78,192.81Z"/><path class="cls-119" d="M206.54,199a1,1,0,0,1-.25,1.39,1,1,0,0,1-1.39-.25,1,1,0,0,1,1.64-1.14Z"/><path class="cls-119" d="M217.07,243.17a1,1,0,1,1-1.4-.25A1,1,0,0,1,217.07,243.17Z"/><path class="cls-119" d="M360.4,218.53a1,1,0,0,1-.25,1.39,1,1,0,1,1,.25-1.39Z"/><path class="cls-119" d="M336.76,232.55a1,1,0,1,1-1.39-.25A1,1,0,0,1,336.76,232.55Z"/><path class="cls-119" d="M310.29,171a1,1,0,1,1-1.4-.25A1,1,0,0,1,310.29,171Z"/><path class="cls-119" d="M337,187.73a1,1,0,1,1-1.39-.25A1,1,0,0,1,337,187.73Z"/><path class="cls-119" d="M328.41,194.27a1,1,0,1,1-1.64,1.14A1,1,0,0,1,327,194,1,1,0,0,1,328.41,194.27Z"/><path class="cls-119" d="M45.27,197.55a1,1,0,1,1-1.39-.25A1,1,0,0,1,45.27,197.55Z"/><path class="cls-119" d="M22.12,219.72a1,1,0,0,1-.25,1.4,1,1,0,0,1-1.39-.25,1,1,0,0,1,.24-1.39A1,1,0,0,1,22.12,219.72Z"/><path class="cls-119" d="M30.53,240.43a1,1,0,0,1-.25,1.39,1,1,0,1,1,.25-1.39Z"/><path class="cls-119" d="M45.27,197.55a1,1,0,1,1-1.39-.25A1,1,0,0,1,45.27,197.55Z"/><path class="cls-119" d="M63.41,203.52a1,1,0,1,1-1.64,1.15,1,1,0,0,1,1.64-1.15Z"/><path class="cls-119" d="M30.53,240.43a1,1,0,0,1-.25,1.39,1,1,0,1,1,.25-1.39Z"/><path class="cls-119" d="M347.4,42.42a1,1,0,0,1-.24,1.39,1,1,0,0,1-1.4-.25,1,1,0,0,1,.25-1.39A1,1,0,0,1,347.4,42.42Z"/><path class="cls-119" d="M341.56,37.18a1,1,0,0,1-1.64,1.15,1,1,0,1,1,1.64-1.15Z"/><path class="cls-119" d="M341.16,56.63a1,1,0,1,1-1.39-.25A1,1,0,0,1,341.16,56.63Z"/><path class="cls-119" d="M347.4,42.42a1,1,0,0,1-.24,1.39,1,1,0,0,1-1.4-.25,1,1,0,0,1,.25-1.39A1,1,0,0,1,347.4,42.42Z"/><path class="cls-119" d="M368.66,33.62a1,1,0,1,1-1.39-.25A1,1,0,0,1,368.66,33.62Z"/><path class="cls-119" d="M341.56,37.18a1,1,0,0,1-1.64,1.15,1,1,0,1,1,1.64-1.15Z"/><path class="cls-119" d="M224.67,80.09a1,1,0,0,1-.25,1.39,1,1,0,1,1-1.14-1.64A1,1,0,0,1,224.67,80.09Z"/><path class="cls-119" d="M232.36,78.55a1,1,0,1,1-1.39-.24A1,1,0,0,1,232.36,78.55Z"/><path class="cls-119" d="M217.15,75.2a1,1,0,0,1-.25,1.39,1,1,0,0,1-1.39-.24,1,1,0,1,1,1.64-1.15Z"/><path class="cls-119" d="M224.67,80.09a1,1,0,0,1-.25,1.39,1,1,0,1,1-1.14-1.64A1,1,0,0,1,224.67,80.09Z"/><path class="cls-119" d="M217.15,75.2a1,1,0,0,1-.25,1.39,1,1,0,0,1-1.39-.24,1,1,0,1,1,1.64-1.15Z"/><path class="cls-119" d="M179.08,108.6a1,1,0,1,1-1.64,1.14,1,1,0,0,1,.25-1.39A1,1,0,0,1,179.08,108.6Z"/></g></g></g><g id="Capa_6" data-name="Capa 6"><g class="cls-120"><g class="cls-7"><path class="cls-8" d="M378.77,121.33l-17.54-53.8L381,65.59v52.63ZM362.13,68.12,379,119.84l1.29-1.83V66.33Z"/></g><g id="triangle36-148" data-name="triangle36" class="cls-88"><path class="cls-8" d="M352.55,90.32,257.12,50.41l105,17.15ZM262.67,52l89.52,37.44,9-21.35Z"/></g><g id="triangle36-149" data-name="triangle36" class="cls-9"><path class="cls-8" d="M276,229.49l-78.84-37.94,51.22-9.45Zm-76.68-37.65,75,36.09L248,182.85Z"/></g><g id="triangle36-150" data-name="triangle36" class="cls-10"><path class="cls-8" d="M174.7,251.79,158.61,181l40.09,10.5Zm-15.18-69.9,15.36,67.63,22.92-57.6Z"/></g><g class="cls-11"><path class="cls-8" d="M175.1,255H130.43l-15.84-27,60.54,22.44Zm-44.28-.67h43.61l0-3.4-58.32-21.62Z"/></g><g class="cls-12"><path class="cls-8" d="M293.39,255H270.13L275,227.83Zm-22.46-.67h21.19l-16.77-24.71Z"/></g><g class="cls-13"><path class="cls-8" d="M249.14,255H179.06l-5-4.5,102.14-22.33Zm-69.82-.67h69.54l25.24-25-98.6,21.55Z"/></g><g id="triangle36-151" data-name="triangle36" class="cls-14"><path class="cls-8" d="M246.67,146.94l13-96.21,93.53,39.11Zm13.5-95.25-12.66,94,104.08-55.8Z"/></g><g id="triangle36-152" data-name="triangle36" class="cls-15"><path class="cls-8" d="M363.77,195.47,247.89,182.78l-1.15-37Zm-115.23-13.3L359.29,194.3,247.45,146.84Z"/></g><g id="triangle36-153" data-name="triangle36" class="cls-16"><path class="cls-8" d="M102.3,181l-.22-.24-31.72-36L152.25,139ZM71.76,145.39l30.61,34.7,47.86-40.3Z"/></g><g id="triangle36-154" data-name="triangle36" class="cls-17"><path class="cls-8" d="M103.32,181l-24.5-2.13-7.94-26.7Zm-24-2.76,22,1.91L72.2,154.24Z"/></g><g id="triangle36-155" data-name="triangle36" class="cls-18"><path class="cls-8" d="M62.73,246.41l16.18-68.66,37,51.05Zm16.5-67.07-15.56,66,51.14-16.94Z"/></g><g id="triangle36-156" data-name="triangle36" class="cls-19"><path class="cls-8" d="M248.57,183.2l-12.11-9.77,10.92-28.81Zm-11.3-10,10.58,8.54-1-33.72Z"/></g><g id="triangle36-157" data-name="triangle36" class="cls-20"><path class="cls-8" d="M195.79,192.49l41.12-19.57L249,182.67Zm41-18.78-36.11,17.18,46.72-8.62Z"/></g><g class="cls-21"><path class="cls-22" d="M375.54,118.16a1.5,1.5,0,1,1,2.11.26A1.5,1.5,0,0,1,375.54,118.16Z"/><path class="cls-22" d="M342.35,165.25a1.5,1.5,0,1,1,2.09.26A1.5,1.5,0,0,1,342.35,165.25Z"/><path class="cls-22" d="M328.5,122.8a1.5,1.5,0,1,1,2.1.26A1.49,1.49,0,0,1,328.5,122.8Z"/><path class="cls-22" d="M254.84,57.05a1.5,1.5,0,1,1,2.09.26A1.5,1.5,0,0,1,254.84,57.05Z"/><path class="cls-22" d="M246.6,109.42a1.49,1.49,0,1,1,2.1.27A1.48,1.48,0,0,1,246.6,109.42Z"/><path class="cls-22" d="M321,140.54a1.5,1.5,0,0,1,2.37-1.84,1.5,1.5,0,1,1-2.37,1.84Z"/><path class="cls-22" d="M328.5,122.8a1.5,1.5,0,1,1,2.1.26A1.49,1.49,0,0,1,328.5,122.8Z"/><path class="cls-22" d="M197,222.47a1.49,1.49,0,1,1,2.1.27A1.5,1.5,0,0,1,197,222.47Z"/><path class="cls-22" d="M258.88,252.26a1.5,1.5,0,1,1,2.1.26A1.5,1.5,0,0,1,258.88,252.26Z"/><path class="cls-22" d="M237.19,215.06a1.5,1.5,0,1,1,2.37-1.84,1.5,1.5,0,0,1-2.37,1.84Z"/><path class="cls-22" d="M197,222.47a1.49,1.49,0,1,1,2.1.27A1.5,1.5,0,0,1,197,222.47Z"/><path class="cls-22" d="M165.46,214.21a1.49,1.49,0,1,1,2.09.26A1.5,1.5,0,0,1,165.46,214.21Z"/><path class="cls-22" d="M130.28,252.19a1.5,1.5,0,0,1,2.37-1.84,1.5,1.5,0,1,1-2.37,1.84Z"/><path class="cls-22" d="M258.88,252.26a1.5,1.5,0,1,1,2.1.26A1.5,1.5,0,0,1,258.88,252.26Z"/><path class="cls-22" d="M258.88,252.26a1.5,1.5,0,1,1,2.1.26A1.5,1.5,0,0,1,258.88,252.26Z"/><path class="cls-22" d="M246.6,109.42a1.49,1.49,0,1,1,2.1.27A1.48,1.48,0,0,1,246.6,109.42Z"/><path class="cls-22" d="M236.29,186a1.5,1.5,0,1,1,2.1.26A1.49,1.49,0,0,1,236.29,186Z"/><path class="cls-22" d="M246.6,109.42a1.49,1.49,0,1,1,2.1.27A1.48,1.48,0,0,1,246.6,109.42Z"/><path class="cls-22" d="M321,140.54a1.5,1.5,0,0,1,2.37-1.84,1.5,1.5,0,1,1-2.37,1.84Z"/><path class="cls-22" d="M236.29,186a1.5,1.5,0,1,1,2.1.26A1.49,1.49,0,0,1,236.29,186Z"/><path class="cls-22" d="M237.19,215.06a1.5,1.5,0,1,1,2.37-1.84,1.5,1.5,0,0,1-2.37,1.84Z"/><path class="cls-22" d="M328.39,225.05a1.5,1.5,0,0,1,2.36-1.84,1.5,1.5,0,0,1-2.36,1.84Z"/><path class="cls-22" d="M368.31,177.84a1.49,1.49,0,1,1,2.1.27A1.5,1.5,0,0,1,368.31,177.84Z"/><path class="cls-22" d="M368.31,177.84a1.49,1.49,0,1,1,2.1.27A1.5,1.5,0,0,1,368.31,177.84Z"/><path class="cls-22" d="M345.68,58.38a1.5,1.5,0,1,1,2.1.26A1.49,1.49,0,0,1,345.68,58.38Z"/><path class="cls-22" d="M94.64,185A1.5,1.5,0,1,1,97,183.14,1.5,1.5,0,1,1,94.64,185Z"/><path class="cls-22" d="M119.8,213.52a1.5,1.5,0,1,1,2.1.26A1.5,1.5,0,0,1,119.8,213.52Z"/><path class="cls-22" d="M159.15,180.37a1.5,1.5,0,1,1,2.11.27A1.51,1.51,0,0,1,159.15,180.37Z"/><path class="cls-22" d="M95,191.5a1.5,1.5,0,1,1,2.1.26A1.51,1.51,0,0,1,95,191.5Z"/><path class="cls-22" d="M101.08,211.89a1.5,1.5,0,1,1,2.1.26A1.5,1.5,0,0,1,101.08,211.89Z"/><path class="cls-22" d="M119.8,213.52a1.5,1.5,0,1,1,2.1.26A1.5,1.5,0,0,1,119.8,213.52Z"/><path class="cls-22" d="M130.28,252.19a1.5,1.5,0,0,1,2.37-1.84,1.5,1.5,0,1,1-2.37,1.84Z"/><path class="cls-22" d="M101.08,211.89a1.5,1.5,0,1,1,2.1.26A1.5,1.5,0,0,1,101.08,211.89Z"/><path class="cls-22" d="M228.06,207.69a1.5,1.5,0,1,1,2.1.26A1.5,1.5,0,0,1,228.06,207.69Z"/><path class="cls-22" d="M237.19,215.06a1.5,1.5,0,1,1,2.37-1.84,1.5,1.5,0,0,1-2.37,1.84Z"/><path class="cls-22" d="M236.29,186a1.5,1.5,0,1,1,2.1.26A1.49,1.49,0,0,1,236.29,186Z"/><path class="cls-22" d="M228.06,207.69a1.5,1.5,0,1,1,2.1.26A1.5,1.5,0,0,1,228.06,207.69Z"/><path class="cls-22" d="M197,222.47a1.49,1.49,0,1,1,2.1.27A1.5,1.5,0,0,1,197,222.47Z"/><path class="cls-22" d="M237.19,215.06a1.5,1.5,0,1,1,2.37-1.84,1.5,1.5,0,0,1-2.37,1.84Z"/></g><g id="triangle36-158" data-name="triangle36" class="cls-9"><path class="cls-8" d="M211,107.49,132.17,69.55l51.22-9.45ZM134.33,69.84l75,36.09L183,60.85Z"/></g><g id="triangle36-159" data-name="triangle36" class="cls-10"><path class="cls-8" d="M109.7,129.79,93.61,59l40.09,10.5ZM94.52,59.89l15.36,67.63,22.92-57.6Z"/></g><g class="cls-11"><path class="cls-8" d="M110.1,133H65.43L49.59,106l60.54,22.44Zm-44.28-.67h43.61l0-3.4L51.13,107.27Z"/></g><g class="cls-12"><path class="cls-8" d="M228.39,133H205.13L210,105.83Zm-22.46-.67h21.19l-16.77-24.71Z"/></g><g class="cls-13"><path class="cls-8" d="M184.14,133H114.06l-5-4.5,102.14-22.33Zm-69.82-.67h69.54l25.24-25-98.6,21.55Z"/></g><g id="triangle36-160" data-name="triangle36" class="cls-14"><path class="cls-8" d="M181.67,24.94l13-96.21,93.53,39.11Zm13.5-95.25-12.66,94,104.08-55.8Z"/></g><g id="triangle36-161" data-name="triangle36" class="cls-15"><path class="cls-8" d="M298.77,73.47,182.89,60.78l-1.15-37ZM183.54,60.17,294.29,72.3,182.45,24.84Z"/></g><g id="triangle36-162" data-name="triangle36" class="cls-16"><path class="cls-8" d="M37.3,59l-.22-.24-31.72-36L87.25,17ZM6.76,23.39l30.61,34.7,47.86-40.3Z"/></g><g id="triangle36-163" data-name="triangle36" class="cls-17"><path class="cls-8" d="M38.32,59l-24.5-2.13L5.88,30.16Zm-24-2.76,22,1.91L7.2,32.24Z"/></g><g id="triangle36-164" data-name="triangle36" class="cls-18"><path class="cls-8" d="M-2.27,124.41,13.91,55.75l37,51.05Zm16.5-67.07L-1.33,123.39l51.14-16.94Z"/></g><g id="triangle36-165" data-name="triangle36" class="cls-19"><path class="cls-8" d="M183.57,61.2l-12.11-9.77,10.92-28.81Zm-11.3-10,10.58,8.54-1-33.72Z"/></g><g id="triangle36-166" data-name="triangle36" class="cls-20"><path class="cls-8" d="M130.79,70.49l41.12-19.57L184,60.67Zm41-18.78L135.71,68.89l46.72-8.62Z"/></g><g class="cls-21"><path class="cls-22" d="M277.35,43.25a1.5,1.5,0,1,1,2.09.26A1.5,1.5,0,0,1,277.35,43.25Z"/><path class="cls-22" d="M263.5.8a1.49,1.49,0,0,1,.26-2.1,1.51,1.51,0,0,1,2.11.26,1.5,1.5,0,0,1-.27,2.1A1.5,1.5,0,0,1,263.5.8Z"/><path class="cls-22" d="M256,18.54a1.5,1.5,0,0,1,2.37-1.84A1.5,1.5,0,1,1,256,18.54Z"/><path class="cls-22" d="M263.5.8a1.49,1.49,0,0,1,.26-2.1,1.51,1.51,0,0,1,2.11.26,1.5,1.5,0,0,1-.27,2.1A1.5,1.5,0,0,1,263.5.8Z"/><path class="cls-22" d="M132,100.47a1.49,1.49,0,1,1,2.1.27A1.5,1.5,0,0,1,132,100.47Z"/><path class="cls-22" d="M193.88,130.26a1.5,1.5,0,1,1,2.1.26A1.5,1.5,0,0,1,193.88,130.26Z"/><path class="cls-22" d="M172.19,93.06a1.5,1.5,0,1,1,2.37-1.84,1.5,1.5,0,0,1-2.37,1.84Z"/><path class="cls-22" d="M132,100.47a1.49,1.49,0,1,1,2.1.27A1.5,1.5,0,0,1,132,100.47Z"/><path class="cls-22" d="M100.46,92.21a1.49,1.49,0,1,1,2.09.26A1.5,1.5,0,0,1,100.46,92.21Z"/><path class="cls-22" d="M65.28,130.19a1.5,1.5,0,0,1,2.37-1.84,1.5,1.5,0,1,1-2.37,1.84Z"/><path class="cls-22" d="M193.88,130.26a1.5,1.5,0,1,1,2.1.26A1.5,1.5,0,0,1,193.88,130.26Z"/><path class="cls-22" d="M193.88,130.26a1.5,1.5,0,1,1,2.1.26A1.5,1.5,0,0,1,193.88,130.26Z"/><path class="cls-22" d="M171.29,64a1.5,1.5,0,1,1,2.1.26A1.49,1.49,0,0,1,171.29,64Z"/><path class="cls-22" d="M256,18.54a1.5,1.5,0,0,1,2.37-1.84A1.5,1.5,0,1,1,256,18.54Z"/><path class="cls-22" d="M171.29,64a1.5,1.5,0,1,1,2.1.26A1.49,1.49,0,0,1,171.29,64Z"/><path class="cls-22" d="M172.19,93.06a1.5,1.5,0,1,1,2.37-1.84,1.5,1.5,0,0,1-2.37,1.84Z"/><path class="cls-22" d="M263.39,103.05a1.5,1.5,0,0,1,2.36-1.84,1.5,1.5,0,0,1-2.36,1.84Z"/><path class="cls-22" d="M303.31,55.84a1.49,1.49,0,1,1,2.1.27A1.5,1.5,0,0,1,303.31,55.84Z"/><path class="cls-22" d="M303.31,55.84a1.49,1.49,0,1,1,2.1.27A1.5,1.5,0,0,1,303.31,55.84Z"/><path class="cls-22" d="M29.64,63A1.5,1.5,0,1,1,32,61.14,1.5,1.5,0,1,1,29.64,63Z"/><path class="cls-22" d="M54.8,91.52a1.5,1.5,0,1,1,2.1.26A1.5,1.5,0,0,1,54.8,91.52Z"/><path class="cls-22" d="M94.15,58.37a1.5,1.5,0,1,1,2.11.27A1.51,1.51,0,0,1,94.15,58.37Z"/><path class="cls-22" d="M30,69.5a1.5,1.5,0,1,1,2.1.26A1.51,1.51,0,0,1,30,69.5Z"/><path class="cls-22" d="M36.08,89.89a1.5,1.5,0,1,1,2.1.26A1.5,1.5,0,0,1,36.08,89.89Z"/><path class="cls-22" d="M54.8,91.52a1.5,1.5,0,1,1,2.1.26A1.5,1.5,0,0,1,54.8,91.52Z"/><path class="cls-22" d="M65.28,130.19a1.5,1.5,0,0,1,2.37-1.84,1.5,1.5,0,1,1-2.37,1.84Z"/><path class="cls-22" d="M36.08,89.89a1.5,1.5,0,1,1,2.1.26A1.5,1.5,0,0,1,36.08,89.89Z"/><path class="cls-22" d="M163.06,85.69a1.5,1.5,0,1,1,2.1.26A1.5,1.5,0,0,1,163.06,85.69Z"/><path class="cls-22" d="M172.19,93.06a1.5,1.5,0,1,1,2.37-1.84,1.5,1.5,0,0,1-2.37,1.84Z"/><path class="cls-22" d="M171.29,64a1.5,1.5,0,1,1,2.1.26A1.49,1.49,0,0,1,171.29,64Z"/><path class="cls-22" d="M163.06,85.69a1.5,1.5,0,1,1,2.1.26A1.5,1.5,0,0,1,163.06,85.69Z"/><path class="cls-22" d="M132,100.47a1.49,1.49,0,1,1,2.1.27A1.5,1.5,0,0,1,132,100.47Z"/><path class="cls-22" d="M172.19,93.06a1.5,1.5,0,1,1,2.37-1.84,1.5,1.5,0,0,1-2.37,1.84Z"/></g></g></g><g id="nopsis"><path class="cls-123" d="M311.39,96.51h37.49a13.1,13.1,0,0,1,9.36,3.91,13.87,13.87,0,0,1,2.82,4.27,12.8,12.8,0,0,1,1.05,5.13v47.41h-4.35c-3.25,0-5.77-.63-7.57-1.91a11.25,11.25,0,0,1-4-5,21.45,21.45,0,0,1-1.52-6.79c-.18-2.49-.26-4.92-.26-7.3v-22.1c-2.85,0-5.63.07-8.36.22s-5.32.18-7.78.13a32.77,32.77,0,0,1-6.79-.83,12.4,12.4,0,0,1-5.35-2.7,12.67,12.67,0,0,1-3.52-5.43A27.09,27.09,0,0,1,311.39,96.51Zm17.66,60.72h-4.44a12.75,12.75,0,0,1-5.18-1,13.4,13.4,0,0,1-7-7,12.75,12.75,0,0,1-1-5.18V108.86a17.12,17.12,0,0,0,3.56,4.48,12,12,0,0,0,3.92,2.22,15.82,15.82,0,0,0,4.61.78c1.68.06,3.54.09,5.57.09Z"/><path class="cls-123" d="M417.09,138.18v19H399.43V142.62H384v14.61h-4.44a12.7,12.7,0,0,1-5.17-1,13.37,13.37,0,0,1-7-7,12.92,12.92,0,0,1-1-5.18V109.73a13,13,0,0,1,1-5.13,13.24,13.24,0,0,1,7-7,12.87,12.87,0,0,1,5.17-1h24.28a13,13,0,0,1,5.13,1,13.13,13.13,0,0,1,7.05,7,13,13,0,0,1,1,5.13v20.45a18.07,18.07,0,0,0-3.57-4.44,11.23,11.23,0,0,0-3.91-2.22,17.72,17.72,0,0,0-4.61-.74c-1.69-.06-3.54-.09-5.57-.09v-8.52H384V125c1.8,0,3.86-.08,6.18-.22s4.7-.22,7.13-.22a50.92,50.92,0,0,1,7.22.52,19.55,19.55,0,0,1,6.35,2,11.81,11.81,0,0,1,4.48,4.14A12.84,12.84,0,0,1,417.09,138.18Z"/><path class="cls-123" d="M471.81,109.82v19.57a12.88,12.88,0,0,1-1,5.18,13.48,13.48,0,0,1-2.83,4.18,13.24,13.24,0,0,1-4.22,2.82,12.8,12.8,0,0,1-5.13,1.05H440.93V125h13.22v-10.7c-2.9,0-5.71.08-8.44.26s-5.32.23-7.79.17a32.09,32.09,0,0,1-6.78-.83,12.1,12.1,0,0,1-5.31-2.71,13,13,0,0,1-3.48-5.46,27.37,27.37,0,0,1-1.26-9.1h37.5a12.8,12.8,0,0,1,5.13,1,13.13,13.13,0,0,1,7,7A13,13,0,0,1,471.81,109.82Zm-33.06,47.41h-4.43a12.72,12.72,0,0,1-5.18-1,13.28,13.28,0,0,1-4.18-2.82,13.55,13.55,0,0,1-2.83-4.17,12.91,12.91,0,0,1-1-5.17V109a18.19,18.19,0,0,0,3.57,4.43,11.23,11.23,0,0,0,3.91,2.22,17.72,17.72,0,0,0,4.61.74c1.68,0,3.54.08,5.57.08Z"/><path class="cls-123" d="M475.9,128.35V109.82a13,13,0,0,1,1-5.13,13.24,13.24,0,0,1,7-7,12.71,12.71,0,0,1,5.17-1H513.4a12.83,12.83,0,0,1,5.13,1,13.79,13.79,0,0,1,4.26,2.83,13.16,13.16,0,0,1,3.92,9.35v6.61H509.05v-2.17H493.56v4.61H520q6.71,0,6.7,6.7V144a13,13,0,0,1-1.52,6.66,11.41,11.41,0,0,1-4,4,15.88,15.88,0,0,1-5.65,2,39.72,39.72,0,0,1-6.48.52,13.51,13.51,0,0,1-5.4-1,12.09,12.09,0,0,1-4.17-2.92,13.54,13.54,0,0,1-2.7-4.38,14.8,14.8,0,0,1-1-5.37v-3.94h13.23V135H493.56a53.7,53.7,0,0,0-5.48.31,24.91,24.91,0,0,1-5.74-.05,9.12,9.12,0,0,1-4.57-1.82Q475.9,131.92,475.9,128.35ZM501,157.23H489.12a12.7,12.7,0,0,1-5.17-1,13.37,13.37,0,0,1-7-7,12.92,12.92,0,0,1-1-5.18V137.4h17.66c0,2.14,0,4.13,0,6a21.1,21.1,0,0,0,.52,5.17,12.46,12.46,0,0,0,2.13,4.57A16.73,16.73,0,0,0,501,157.23Z"/><path class="cls-123" d="M548.89,157.23h-4.43a12.72,12.72,0,0,1-5.18-1,13.09,13.09,0,0,1-4.18-2.87,13.76,13.76,0,0,1-2.82-4.26,12.88,12.88,0,0,1-1-5.14V96.51h4.44a13,13,0,0,1,5.13,1,13.13,13.13,0,0,1,7.05,7,13,13,0,0,1,1,5.13Z"/><path class="cls-123" d="M554,117.39V91.83a17.79,17.79,0,0,1,1.44-7.08,18.37,18.37,0,0,1,3.9-5.82A18.55,18.55,0,0,1,565.1,75a17.66,17.66,0,0,1,7.14-1.44h33.48A17.79,17.79,0,0,1,612.8,75a19.1,19.1,0,0,1,5.88,3.9,18.09,18.09,0,0,1,5.4,12.9V101H599.72V98H578.36v6.36h36.48q9.24,0,9.24,9.24V139a17.8,17.8,0,0,1-2.1,9.18,15.7,15.7,0,0,1-5.52,5.58,22.06,22.06,0,0,1-7.8,2.76,55,55,0,0,1-8.94.72,18.7,18.7,0,0,1-7.44-1.44,16.86,16.86,0,0,1-5.76-4,18.62,18.62,0,0,1-3.72-6,20.54,20.54,0,0,1-1.32-7.42v-5.43h18.24v-6.36H578.36q-3.36,0-7.56.42a34.23,34.23,0,0,1-7.92-.06,12.43,12.43,0,0,1-6.3-2.52C554.86,123,554,120.68,554,117.39Zm34.68,39.84H572.24a17.66,17.66,0,0,1-7.14-1.44,18.4,18.4,0,0,1-9.66-9.66A17.66,17.66,0,0,1,554,139v-9.12h24.36q0,4.44-.06,8.22a29.42,29.42,0,0,0,.72,7.14,17.1,17.1,0,0,0,2.94,6.3A23,23,0,0,0,588.68,157.23Z"/></g></g></svg>