<svg xmlns="http://www.w3.org/2000/svg" xmlns:xlink="http://www.w3.org/1999/xlink" viewBox="0 0 327 264.21"><defs><style>.cls-1{fill:none;}.cls-2{isolation:isolate;}.cls-3{fill:#00edff;}.cls-4{fill:url(#Degradado_sin_nombre_32);}.cls-5{fill:url(#Degradado_sin_nombre_41);}.cls-6{clip-path:url(#clip-path);}.cls-30,.cls-7{opacity:0.34;}.cls-10,.cls-100,.cls-101,.cls-102,.cls-103,.cls-104,.cls-105,.cls-106,.cls-107,.cls-108,.cls-109,.cls-11,.cls-110,.cls-111,.cls-12,.cls-13,.cls-14,.cls-15,.cls-16,.cls-17,.cls-18,.cls-19,.cls-22,.cls-23,.cls-24,.cls-25,.cls-26,.cls-27,.cls-28,.cls-29,.cls-30,.cls-31,.cls-32,.cls-33,.cls-34,.cls-35,.cls-36,.cls-37,.cls-38,.cls-39,.cls-40,.cls-41,.cls-42,.cls-43,.cls-44,.cls-45,.cls-46,.cls-47,.cls-48,.cls-49,.cls-50,.cls-51,.cls-52,.cls-53,.cls-54,.cls-55,.cls-56,.cls-57,.cls-58,.cls-59,.cls-60,.cls-61,.cls-62,.cls-63,.cls-64,.cls-65,.cls-66,.cls-67,.cls-68,.cls-69,.cls-7,.cls-70,.cls-71,.cls-72,.cls-73,.cls-74,.cls-75,.cls-76,.cls-77,.cls-79,.cls-80,.cls-81,.cls-82,.cls-83,.cls-84,.cls-85,.cls-86,.cls-87,.cls-88,.cls-89,.cls-9,.cls-90,.cls-91,.cls-92,.cls-93,.cls-94,.cls-95,.cls-96,.cls-97,.cls-98,.cls-99{mix-blend-mode:color-dodge;}.cls-8{fill:#87c6c8;}.cls-9{opacity:0.44;}.cls-10{opacity:0.34;}.cls-11,.cls-37{opacity:0.2;}.cls-12,.cls-40{opacity:0.27;}.cls-13,.cls-43{opacity:0.36;}.cls-14,.cls-44{opacity:0.06;}.cls-15{opacity:0.52;}.cls-16{opacity:0.72;}.cls-17{opacity:0.33;}.cls-18{opacity:0.8;}.cls-19{opacity:0.38;}.cls-20{mix-blend-mode:screen;}.cls-21{fill:#79c3c5;}.cls-22,.cls-23,.cls-24,.cls-25,.cls-26,.cls-27,.cls-28,.cls-29,.cls-30,.cls-31,.cls-32,.cls-33,.cls-34,.cls-35,.cls-36,.cls-37,.cls-38,.cls-39,.cls-40,.cls-41,.cls-42,.cls-43,.cls-44,.cls-45,.cls-46,.cls-47,.cls-48,.cls-49,.cls-50,.cls-51,.cls-52,.cls-53,.cls-54,.cls-55,.cls-56,.cls-57,.cls-58,.cls-59,.cls-60,.cls-61,.cls-62,.cls-63,.cls-64,.cls-65,.cls-66,.cls-67,.cls-68,.cls-69,.cls-70,.cls-71,.cls-72,.cls-73,.cls-74,.cls-75,.cls-76{fill:#2d6466;}.cls-22,.cls-77{opacity:0.24;}.cls-23,.cls-79{opacity:0.5;}.cls-24,.cls-80{opacity:0.88;}.cls-25{opacity:0.64;}.cls-26{opacity:0.14;}.cls-27{opacity:0.25;}.cls-28,.cls-82{opacity:0.05;}.cls-29{opacity:0.88;}.cls-31{opacity:0.67;}.cls-32,.cls-83{opacity:0.64;}.cls-33,.cls-84{opacity:0.65;}.cls-34,.cls-85{opacity:0.41;}.cls-35,.cls-86{opacity:0.19;}.cls-36,.cls-87{opacity:0.17;}.cls-38{opacity:0.15;}.cls-39{opacity:0.94;}.cls-41,.cls-88{opacity:0.78;}.cls-42,.cls-89{opacity:0.5;}.cls-45,.cls-91{opacity:0.6;}.cls-46,.cls-92{opacity:0.79;}.cls-47,.cls-93{opacity:0.4;}.cls-48,.cls-94{opacity:0.14;}.cls-49,.cls-95{opacity:0.3;}.cls-50{opacity:0.58;}.cls-51{opacity:0.96;}.cls-52{opacity:0.83;}.cls-53{opacity:0.1;}.cls-54{opacity:0.94;}.cls-55,.cls-98{opacity:0.59;}.cls-56,.cls-99{opacity:0.41;}.cls-100,.cls-57{opacity:0.94;}.cls-58{opacity:0.35;}.cls-101,.cls-59{opacity:0.23;}.cls-102,.cls-60{opacity:0.13;}.cls-103,.cls-61{opacity:0.29;}.cls-104,.cls-62{opacity:0.79;}.cls-63{opacity:0.72;}.cls-64{opacity:0.2;}.cls-65{opacity:0.76;}.cls-66{opacity:0.17;}.cls-105,.cls-67{opacity:0.32;}.cls-106,.cls-68{opacity:0.77;}.cls-107,.cls-69{opacity:0.79;}.cls-70{opacity:0.71;}.cls-71{opacity:0.15;}.cls-109,.cls-72{opacity:0.14;}.cls-73{opacity:0.98;}.cls-74{opacity:0.79;}.cls-110,.cls-75{opacity:0.93;}.cls-111,.cls-76{opacity:0.94;}.cls-78{fill:#568082;}.cls-81{opacity:0.7;}.cls-90{opacity:0.76;}.cls-96{opacity:0.72;}.cls-97{opacity:0.64;}.cls-108{opacity:0.72;}.cls-112{fill:#a8a8a8;}.cls-113{clip-path:url(#clip-path-2);}.cls-114{font-size:87px;fill:#040a14;font-family:Mayor-Regular, Mayor;}.cls-115{font-size:120px;}</style><linearGradient id="Degradado_sin_nombre_32" x1="41.54" y1="129.16" x2="205.76" y2="129.16" gradientUnits="userSpaceOnUse"><stop offset="0.01" stop-color="#1d2532"/><stop offset="0.13" stop-color="#0d202d"/><stop offset="0.43" stop-color="#0d202d"/><stop offset="0.64" stop-color="#071826"/><stop offset="1" stop-color="#000f1e"/></linearGradient><linearGradient id="Degradado_sin_nombre_41" x1="135.24" y1="126.13" x2="289.18" y2="126.13" gradientUnits="userSpaceOnUse"><stop offset="0.01" stop-color="#1d2532"/><stop offset="0.13" stop-color="#0d202d"/><stop offset="0.43" stop-color="#0d202d"/><stop offset="0.49" stop-color="#0b2532"/><stop offset="0.81" stop-color="#033e4c"/><stop offset="1" stop-color="#004755"/></linearGradient><clipPath id="clip-path"><path class="cls-1" d="M78.34,209.76v-.36q0-13.54,4.21-23.61T92.61,171q12.08-9.89,22-10.62L119,160a36.17,36.17,0,0,1,18.67,4.94q8.42,4.94,8.42,13.72,0,4.4-4.76,7.32a25.15,25.15,0,0,0-8.24,8.79q-3.48,5.85-3.84,9.88l-.73,4q0,22.34,20.5,29.65,7.31,2.56,11.71,2.56,20.12,0,32.39-12.08t12.26-30.74q0-22.32-19-36.23a156.21,156.21,0,0,0-30.93-17.21q-16.66-6.95-22.51-9.88t-12.44-6.95a98.76,98.76,0,0,1-14.64-11.35Q88.23,101.06,88.22,74.89t14.27-44.1a80.81,80.81,0,0,1,13.25-13.34A124.53,124.53,0,0,0,80.1,223.84,55.25,55.25,0,0,1,78.34,209.76Z"/></clipPath><clipPath id="clip-path-2"><path class="cls-1" d="M286.39,148.73c-.61.47-1.41,1-2.39,1.67a24.81,24.81,0,0,1-3.39,1.83,25.83,25.83,0,0,1-4.2,1.44,19.28,19.28,0,0,1-4.92.6,10.85,10.85,0,0,1-5.31-1.23,11.11,11.11,0,0,1-3.7-3.23,14.15,14.15,0,0,1-2.15-4.53,18.93,18.93,0,0,1-.7-5.12,49.86,49.86,0,0,1,.46-6.63c.31-2.32.65-4.49,1-6.53s.73-3.8,1.06-5.3a18.18,18.18,0,0,0,.48-2.94,13.49,13.49,0,0,1,.15-1.89,8.51,8.51,0,0,1,.55-2,4.5,4.5,0,0,1,1.08-1.53,2.43,2.43,0,0,1,1.69-.62,5.84,5.84,0,0,1,2.09.33,4.75,4.75,0,0,1,1.41.81,3.53,3.53,0,0,1,.81,1,2.28,2.28,0,0,1,.26,1,11.74,11.74,0,0,1-.68,3.45q-.67,2.13-1.49,4.86c-.55,1.81-1,3.8-1.5,6a33.12,33.12,0,0,0-.68,6.79c0,1.17.07,2.41.2,3.71a13.51,13.51,0,0,0,.83,3.58,6.9,6.9,0,0,0,1.87,2.71,4.89,4.89,0,0,0,3.34,1.07,12.76,12.76,0,0,0,3.63-.55,22.75,22.75,0,0,0,3.62-1.4,30.76,30.76,0,0,0,3.3-1.87c1-.67,1.92-1.3,2.68-1.89s1.46-1.19,2.09-1.73l.63-.54c.16-2.6.25-5.22.25-7.87a124.23,124.23,0,0,0-45.06-95.86c0,.37,0,.73,0,1.11q0,13.17-7.5,22a24.17,24.17,0,0,1-19.22,8.78,27.92,27.92,0,0,1-10.8-2.2c-3.54-1.46-5.3-3.66-5.3-6.58L202.41,48q0-16.83-13.18-21.59Q179,23.1,173.5,23.1h-.37a47.68,47.68,0,0,0-19,3.48q-8.06,3.48-11.71,8.6a44.79,44.79,0,0,0-8.79,22.33q0,13.91,12.45,24a125,125,0,0,0,30.19,17.57q17.74,7.5,35.5,16.28a84.51,84.51,0,0,1,30.2,25.26q12.44,16.47,12.44,39.52,0,29.37-12.09,49a124.31,124.31,0,0,0,45.54-81.58C287.37,148,286.9,148.36,286.39,148.73Zm-17.2-57.28a5.77,5.77,0,0,1,1.25-1.58,7.05,7.05,0,0,1,1.87-1.23,5.39,5.39,0,0,1,2.35-.51,3.52,3.52,0,0,1,1,.24A8.48,8.48,0,0,1,277,89a6.36,6.36,0,0,1,1.16.83,1.28,1.28,0,0,1,.51.9,6.59,6.59,0,0,1-.18,1.28c-.12.55-.27,1.16-.46,1.8s-.4,1.28-.64,1.91-.45,1.17-.66,1.61a3.3,3.3,0,0,1-1,1.2,8.27,8.27,0,0,1-1.54,1,9.09,9.09,0,0,1-1.67.61,5.39,5.39,0,0,1-1.36.22.8.8,0,0,1-.61-.22,1.23,1.23,0,0,1-.33-.57,3.56,3.56,0,0,1-.16-.79c0-.29-.06-.57-.08-.83l-.22-1.37a2.47,2.47,0,0,0-.25-.68l-.33-.63a4.5,4.5,0,0,1-.3-.86,5.33,5.33,0,0,1-.14-1.34A3.33,3.33,0,0,1,269.19,91.45Z"/></clipPath></defs><title>sinapsis</title><g class="cls-2"><g id="Capa_6" data-name="Capa 6"><path class="cls-3" d="M65.34,209.76v-.36q0-13.54,4.21-23.61T79.61,171q12.08-9.89,22-10.62L106,160a36.17,36.17,0,0,1,18.67,4.94q8.42,4.94,8.42,13.72,0,4.4-4.76,7.32a25.15,25.15,0,0,0-8.24,8.79q-3.48,5.85-3.84,9.88l-.73,4q0,22.34,20.5,29.65,7.31,2.56,11.71,2.56,20.12,0,32.39-12.08t12.26-30.74q0-22.32-19-36.23a156.21,156.21,0,0,0-30.93-17.21q-16.66-6.95-22.51-9.88t-12.44-6.95a98.76,98.76,0,0,1-14.64-11.35Q75.22,101.06,75.22,74.89t14.27-44.1a80.81,80.81,0,0,1,13.25-13.34A124.53,124.53,0,0,0,67.1,223.84,55.25,55.25,0,0,1,65.34,209.76Z"/><path class="cls-4" d="M78.34,209.76v-.36q0-13.54,4.21-23.61T92.61,171q12.08-9.89,22-10.62L119,160a36.17,36.17,0,0,1,18.67,4.94q8.42,4.94,8.42,13.72,0,4.4-4.76,7.32a25.15,25.15,0,0,0-8.24,8.79q-3.48,5.85-3.84,9.88l-.73,4q0,22.34,20.5,29.65,7.31,2.56,11.71,2.56,20.12,0,32.39-12.08t12.26-30.74q0-22.32-19-36.23a156.21,156.21,0,0,0-30.93-17.21q-16.66-6.95-22.51-9.88t-12.44-6.95a98.76,98.76,0,0,1-14.64-11.35Q88.23,101.06,88.22,74.89t14.27-44.1a80.81,80.81,0,0,1,13.25-13.34A124.53,124.53,0,0,0,80.1,223.84,55.25,55.25,0,0,1,78.34,209.76Z"/><path class="cls-5" d="M286.39,148.73c-.61.47-1.41,1-2.39,1.67a24.81,24.81,0,0,1-3.39,1.83,25.83,25.83,0,0,1-4.2,1.44,19.28,19.28,0,0,1-4.92.6,10.85,10.85,0,0,1-5.31-1.23,11.11,11.11,0,0,1-3.7-3.23,14.15,14.15,0,0,1-2.15-4.53,18.93,18.93,0,0,1-.7-5.12,49.86,49.86,0,0,1,.46-6.63c.31-2.32.65-4.49,1-6.53s.73-3.8,1.06-5.3a18.18,18.18,0,0,0,.48-2.94,13.49,13.49,0,0,1,.15-1.89,8.51,8.51,0,0,1,.55-2,4.5,4.5,0,0,1,1.08-1.53,2.43,2.43,0,0,1,1.69-.62,5.84,5.84,0,0,1,2.09.33,4.75,4.75,0,0,1,1.41.81,3.53,3.53,0,0,1,.81,1,2.28,2.28,0,0,1,.26,1,11.74,11.74,0,0,1-.68,3.45q-.67,2.13-1.49,4.86c-.55,1.81-1,3.8-1.5,6a33.12,33.12,0,0,0-.68,6.79c0,1.17.07,2.41.2,3.71a13.51,13.51,0,0,0,.83,3.58,6.9,6.9,0,0,0,1.87,2.71,4.89,4.89,0,0,0,3.34,1.07,12.76,12.76,0,0,0,3.63-.55,22.75,22.75,0,0,0,3.62-1.4,30.76,30.76,0,0,0,3.3-1.87c1-.67,1.92-1.3,2.68-1.89s1.46-1.19,2.09-1.73l.63-.54c.16-2.6.25-5.22.25-7.87a124.23,124.23,0,0,0-45.06-95.86c0,.37,0,.73,0,1.11q0,13.17-7.5,22a24.17,24.17,0,0,1-19.22,8.78,27.92,27.92,0,0,1-10.8-2.2c-3.54-1.46-5.3-3.66-5.3-6.58L202.41,48q0-16.83-13.18-21.59Q179,23.1,173.5,23.1h-.37a47.68,47.68,0,0,0-19,3.48q-8.06,3.48-11.71,8.6a44.79,44.79,0,0,0-8.79,22.33q0,13.91,12.45,24a125,125,0,0,0,30.19,17.57q17.74,7.5,35.5,16.28a84.51,84.51,0,0,1,30.2,25.26q12.44,16.47,12.44,39.52,0,29.37-12.09,49a124.31,124.31,0,0,0,45.54-81.58C287.37,148,286.9,148.36,286.39,148.73Zm-17.2-57.28a5.77,5.77,0,0,1,1.25-1.58,7.05,7.05,0,0,1,1.87-1.23,5.39,5.39,0,0,1,2.35-.51,3.52,3.52,0,0,1,1,.24A8.48,8.48,0,0,1,277,89a6.36,6.36,0,0,1,1.16.83,1.28,1.28,0,0,1,.51.9,6.59,6.59,0,0,1-.18,1.28c-.12.55-.27,1.16-.46,1.8s-.4,1.28-.64,1.91-.45,1.17-.66,1.61a3.3,3.3,0,0,1-1,1.2,8.27,8.27,0,0,1-1.54,1,9.09,9.09,0,0,1-1.67.61,5.39,5.39,0,0,1-1.36.22.8.8,0,0,1-.61-.22,1.23,1.23,0,0,1-.33-.57,3.56,3.56,0,0,1-.16-.79c0-.29-.06-.57-.08-.83l-.22-1.37a2.47,2.47,0,0,0-.25-.68l-.33-.63a4.5,4.5,0,0,1-.3-.86,5.33,5.33,0,0,1-.14-1.34A3.33,3.33,0,0,1,269.19,91.45Z"/><g class="cls-6"><g id="triangle36" class="cls-7"><path class="cls-8" d="M247.07,209.91l-109.26-57.3,71-14.27ZM140.8,153.05l103.92,54.5-36.41-68.08Z"/></g><g id="triangle36-2" data-name="triangle36" class="cls-9"><path class="cls-8" d="M106.67,243.59l-22.3-107,55.56,15.86ZM85.62,138l21.29,102.13,31.76-87Z"/></g><g class="cls-10"><path class="cls-8" d="M107.21,248.39H45.32l-22-40.76,83.91,33.89Zm-61.36-1h60.43l0-5.14L25.48,209.58Z"/></g><g class="cls-11"><path class="cls-8" d="M271.16,248.39H238.92l6.72-41Zm-31.12-1h29.35l-23.24-37.31Z"/></g><g class="cls-12"><path class="cls-8" d="M209.83,248.39H112.7l-6.9-6.8,141.57-33.73Zm-96.77-1h96.38l35-37.76L107.78,242.16Z"/></g><g id="triangle36-3" data-name="triangle36" class="cls-13"><path class="cls-8" d="M206.41,85.24l17.94-145.3L354-1ZM225.12-58.6l-17.54,142L351.81-.87Z"/></g><g id="triangle36-4" data-name="triangle36" class="cls-14"><path class="cls-8" d="M368.7,158.54,208.09,139.37,206.5,83.54ZM209,138.45l153.49,18.33-155-71.68Z"/></g><g id="triangle36-5" data-name="triangle36" class="cls-15"><path class="cls-8" d="M6.32,136.73l-.3-.37L-37.95,82,75.55,73.2ZM-36,82.91l42.41,52.4L72.75,74.44Z"/></g><g id="triangle36-6" data-name="triangle36" class="cls-16"><path class="cls-8" d="M7.73,136.66l-33.95-3.21-11-40.32Zm-33.24-4.16L5,135.38-35.4,96.27Z"/></g><g id="triangle36-7" data-name="triangle36" class="cls-17"><path class="cls-8" d="M-48.51,235.46l22.42-103.69,51.26,77.1Zm22.86-101.29-21.57,99.75,70.88-25.58Z"/></g><g id="triangle36-8" data-name="triangle36" class="cls-18"><path class="cls-8" d="M209.05,140l-16.79-14.75,15.13-43.5Zm-15.67-15.08,14.67,12.9L206.6,86.89Z"/></g><g id="triangle36-9" data-name="triangle36" class="cls-19"><path class="cls-8" d="M135.89,154l57-29.55,16.75,14.73Zm56.86-28.35-50,25.95,64.75-13Z"/></g><g class="cls-20"><path class="cls-21" d="M319.82,48.79a2.42,2.42,0,0,1,.36-3.18,2,2,0,0,1,2.92.4,2.39,2.39,0,0,1-.37,3.17A2,2,0,0,1,319.82,48.79Z"/><path class="cls-21" d="M206.31,28.59a2.39,2.39,0,0,1,.36-3.17,2,2,0,0,1,2.91.4,2.41,2.41,0,0,1-.36,3.17A2,2,0,0,1,206.31,28.59Z"/><path class="cls-21" d="M309.44,75.58a2.4,2.4,0,0,1,.37-3.17,2,2,0,0,1,2.91.4,2.41,2.41,0,0,1-.37,3.18A2,2,0,0,1,309.44,75.58Z"/><path class="cls-21" d="M319.82,48.79a2.42,2.42,0,0,1,.36-3.18,2,2,0,0,1,2.92.4,2.39,2.39,0,0,1-.37,3.17A2,2,0,0,1,319.82,48.79Z"/><path class="cls-21" d="M137.55,199.32a2.39,2.39,0,0,1,.37-3.17,2,2,0,0,1,2.91.39,2.41,2.41,0,0,1-.37,3.18A2,2,0,0,1,137.55,199.32Z"/><path class="cls-21" d="M223.33,244.3a2.41,2.41,0,0,1,.36-3.17,2,2,0,0,1,2.92.4,2.4,2.4,0,0,1-.37,3.17A2,2,0,0,1,223.33,244.3Z"/><path class="cls-21" d="M193.28,188.11a2.38,2.38,0,0,1,.36-3.17,2,2,0,0,1,2.91.4,2.41,2.41,0,0,1-.36,3.17A2,2,0,0,1,193.28,188.11Z"/><path class="cls-21" d="M137.55,199.32a2.39,2.39,0,0,1,.37-3.17,2,2,0,0,1,2.91.39,2.41,2.41,0,0,1-.37,3.18A2,2,0,0,1,137.55,199.32Z"/><path class="cls-21" d="M93.85,186.84a2.4,2.4,0,0,1,.36-3.17,2,2,0,0,1,2.92.4,2.41,2.41,0,0,1-.37,3.17A2,2,0,0,1,93.85,186.84Z"/><path class="cls-21" d="M45.1,244.2a2.39,2.39,0,0,1,.37-3.17,2,2,0,0,1,2.91.39A2.41,2.41,0,0,1,48,244.6,2,2,0,0,1,45.1,244.2Z"/><path class="cls-21" d="M223.33,244.3a2.41,2.41,0,0,1,.36-3.17,2,2,0,0,1,2.92.4,2.4,2.4,0,0,1-.37,3.17A2,2,0,0,1,223.33,244.3Z"/><path class="cls-21" d="M223.33,244.3a2.41,2.41,0,0,1,.36-3.17,2,2,0,0,1,2.92.4,2.4,2.4,0,0,1-.37,3.17A2,2,0,0,1,223.33,244.3Z"/><path class="cls-21" d="M206.31,28.59a2.39,2.39,0,0,1,.36-3.17,2,2,0,0,1,2.91.4,2.41,2.41,0,0,1-.36,3.17A2,2,0,0,1,206.31,28.59Z"/><path class="cls-21" d="M192,144.18a2.39,2.39,0,0,1,.36-3.17,2,2,0,0,1,2.91.4,2.4,2.4,0,0,1-.36,3.17A2,2,0,0,1,192,144.18Z"/><path class="cls-21" d="M206.31,28.59a2.39,2.39,0,0,1,.36-3.17,2,2,0,0,1,2.91.4,2.41,2.41,0,0,1-.36,3.17A2,2,0,0,1,206.31,28.59Z"/><path class="cls-21" d="M309.44,75.58a2.4,2.4,0,0,1,.37-3.17,2,2,0,0,1,2.91.4,2.41,2.41,0,0,1-.37,3.18A2,2,0,0,1,309.44,75.58Z"/><path class="cls-21" d="M192,144.18a2.39,2.39,0,0,1,.36-3.17,2,2,0,0,1,2.91.4,2.4,2.4,0,0,1-.36,3.17A2,2,0,0,1,192,144.18Z"/><path class="cls-21" d="M193.28,188.11a2.38,2.38,0,0,1,.36-3.17,2,2,0,0,1,2.91.4,2.41,2.41,0,0,1-.36,3.17A2,2,0,0,1,193.28,188.11Z"/><path class="cls-21" d="M319.66,203.2A2.39,2.39,0,0,1,320,200a2,2,0,0,1,2.91.4,2.38,2.38,0,0,1-.37,3.17A2,2,0,0,1,319.66,203.2Z"/><path class="cls-21" d="M30.58,185.79a2.41,2.41,0,0,1,.36-3.17,2,2,0,0,1,2.91.4,2.39,2.39,0,0,1-.36,3.17A2,2,0,0,1,30.58,185.79Z"/><path class="cls-21" d="M85.12,135.74a2.39,2.39,0,0,1,.37-3.17,2,2,0,0,1,2.91.4,2.41,2.41,0,0,1-.36,3.17A2,2,0,0,1,85.12,135.74Z"/><path class="cls-21" d="M4.64,183.34A2.4,2.4,0,0,1,5,180.17a2,2,0,0,1,2.91.39,2.4,2.4,0,0,1-.36,3.17A2,2,0,0,1,4.64,183.34Z"/><path class="cls-21" d="M30.58,185.79a2.41,2.41,0,0,1,.36-3.17,2,2,0,0,1,2.91.4,2.39,2.39,0,0,1-.36,3.17A2,2,0,0,1,30.58,185.79Z"/><path class="cls-21" d="M45.1,244.2a2.39,2.39,0,0,1,.37-3.17,2,2,0,0,1,2.91.39A2.41,2.41,0,0,1,48,244.6,2,2,0,0,1,45.1,244.2Z"/><path class="cls-21" d="M4.64,183.34A2.4,2.4,0,0,1,5,180.17a2,2,0,0,1,2.91.39,2.4,2.4,0,0,1-.36,3.17A2,2,0,0,1,4.64,183.34Z"/><path class="cls-21" d="M180.62,177a2.4,2.4,0,0,1,.36-3.17,2,2,0,0,1,2.91.39,2.39,2.39,0,0,1-.36,3.17A2,2,0,0,1,180.62,177Z"/><path class="cls-21" d="M193.28,188.11a2.38,2.38,0,0,1,.36-3.17,2,2,0,0,1,2.91.4,2.41,2.41,0,0,1-.36,3.17A2,2,0,0,1,193.28,188.11Z"/><path class="cls-21" d="M192,144.18a2.39,2.39,0,0,1,.36-3.17,2,2,0,0,1,2.91.4,2.4,2.4,0,0,1-.36,3.17A2,2,0,0,1,192,144.18Z"/><path class="cls-21" d="M180.62,177a2.4,2.4,0,0,1,.36-3.17,2,2,0,0,1,2.91.39,2.39,2.39,0,0,1-.36,3.17A2,2,0,0,1,180.62,177Z"/><path class="cls-21" d="M137.55,199.32a2.39,2.39,0,0,1,.37-3.17,2,2,0,0,1,2.91.39,2.41,2.41,0,0,1-.37,3.18A2,2,0,0,1,137.55,199.32Z"/><path class="cls-21" d="M193.28,188.11a2.38,2.38,0,0,1,.36-3.17,2,2,0,0,1,2.91.4,2.41,2.41,0,0,1-.36,3.17A2,2,0,0,1,193.28,188.11Z"/></g><polygon id="triangle36-10" data-name="triangle36" class="cls-22" points="263.75 96.19 255.97 67.37 232.18 97.67 263.75 96.19"/><polygon id="triangle36-11" data-name="triangle36" class="cls-23" points="323.34 188.3 310.66 142.64 360.07 147.89 323.34 188.3"/><polygon id="triangle36-12" data-name="triangle36" class="cls-24" points="323.34 188.3 382.47 193.35 360.07 147.89 323.34 188.3"/><polygon class="cls-25" points="120.52 249.02 113.9 243.44 115.86 249.02 120.52 249.02"/><polygon class="cls-26" points="144.26 249.02 141.05 239.57 113.9 243.44 120.52 249.02 144.26 249.02"/><polygon id="triangle36-13" data-name="triangle36" class="cls-27" points="-25.95 125.41 20.69 144.38 -3.79 156.79 -25.95 125.41"/><polygon id="triangle36-14" data-name="triangle36" class="cls-28" points="263.75 96.19 269.36 84.61 317.97 107.95 263.75 96.19"/><polygon id="triangle36-15" data-name="triangle36" class="cls-29" points="319.21 232.27 339.39 207.78 323.1 233.12 319.21 232.27"/><polygon id="triangle36-16" data-name="triangle36" class="cls-30" points="327.9 37.75 314.7 12.16 355 34.19 327.9 37.75"/><polygon id="triangle36-17" data-name="triangle36" class="cls-31" points="141.05 239.57 174.57 215.37 199.24 244.45 141.05 239.57"/><polygon id="triangle36-18" data-name="triangle36" class="cls-32" points="81.28 82.39 99.38 89.49 93.96 92.72 81.28 82.39"/><polygon id="triangle36-19" data-name="triangle36" class="cls-33" points="78.52 167.59 90.35 116.61 106.03 174.43 78.52 167.59"/><polygon id="triangle36-20" data-name="triangle36" class="cls-34" points="93.96 92.72 99.38 89.49 92.32 103.72 93.96 92.72"/><polygon id="triangle36-21" data-name="triangle36" class="cls-35" points="160.29 72.75 203.48 75.77 193.03 32.11 160.29 72.75"/><polygon id="triangle36-22" data-name="triangle36" class="cls-36" points="157.1 208.38 147.57 184.9 192.88 199.59 157.1 208.38"/><polygon id="triangle36-23" data-name="triangle36" class="cls-37" points="314.7 12.16 321.62 -17.59 293.01 -23.65 314.7 12.16"/><polygon class="cls-38" points="59.79 249.02 51.04 242.09 49.56 249.02 59.79 249.02"/><polygon class="cls-39" points="198.69 249.02 199.24 244.45 194.77 249.02 198.69 249.02"/><polygon id="triangle36-24" data-name="triangle36" class="cls-40" points="314.7 12.16 369.24 3.16 348.29 -17.84 314.7 12.16"/><polygon id="triangle36-25" data-name="triangle36" class="cls-41" points="317.97 107.95 360.07 147.89 363.88 115.65 317.97 107.95"/><polygon id="triangle36-26" data-name="triangle36" class="cls-42" points="78.52 167.59 90.35 116.61 78.69 119.53 78.52 167.59"/><polygon id="triangle36-27" data-name="triangle36" class="cls-43" points="269.36 84.61 317.97 107.95 327.5 57.2 269.36 84.61"/><polygon id="triangle36-28" data-name="triangle36" class="cls-44" points="267.36 27.93 327.9 37.75 327.5 57.2 267.36 27.93"/><polygon id="triangle36-29" data-name="triangle36" class="cls-45" points="203.48 75.77 218.7 79.13 230.92 58.55 203.48 75.77"/><polygon id="triangle36-30" data-name="triangle36" class="cls-46" points="203.48 75.77 210.35 43.59 230.92 58.55 203.48 75.77"/><polygon id="triangle36-31" data-name="triangle36" class="cls-47" points="218.7 79.13 239.07 58.07 230.92 58.55 218.7 79.13"/><polygon id="triangle36-32" data-name="triangle36" class="cls-48" points="239.07 58.07 219.19 25.64 230.92 58.55 239.07 58.07"/><polygon id="triangle36-33" data-name="triangle36" class="cls-49" points="125.73 216.02 157.1 208.38 130.26 188.75 125.73 216.02"/><polygon id="triangle36-34" data-name="triangle36" class="cls-50" points="20.69 144.38 51.99 136.24 40.33 156.43 20.69 144.38"/><polygon class="cls-51" points="49.56 249.02 51.04 242.09 16.86 241 26.99 249.02 49.56 249.02"/><polygon id="triangle36-35" data-name="triangle36" class="cls-52" points="51.04 242.09 49.75 204.1 16.86 241 51.04 242.09"/><polygon id="triangle36-36" data-name="triangle36" class="cls-53" points="284.93 199.21 319.21 232.27 314.75 194.84 284.93 199.21"/><polygon id="triangle36-37" data-name="triangle36" class="cls-54" points="319.21 232.27 339.39 207.78 314.75 194.84 319.21 232.27"/><polygon id="triangle36-38" data-name="triangle36" class="cls-55" points="250.07 239.96 284.93 199.21 260.91 183.63 250.07 239.96"/><polygon id="triangle36-39" data-name="triangle36" class="cls-56" points="147.57 184.9 159.1 125.63 179.19 153.25 147.57 184.9"/><polygon id="triangle36-40" data-name="triangle36" class="cls-57" points="213.06 151.54 250.05 138.61 235.18 186.79 213.06 151.54"/><polygon class="cls-58" points="319.02 249.02 323.1 233.12 314 249.02 319.02 249.02"/><polygon id="triangle36-41" data-name="triangle36" class="cls-59" points="90.35 116.61 92.32 103.72 110.53 112.94 90.35 116.61"/><polygon id="triangle36-42" data-name="triangle36" class="cls-60" points="92.32 103.72 99.38 89.49 110.53 112.94 92.32 103.72"/><polygon id="triangle36-43" data-name="triangle36" class="cls-61" points="99.38 89.49 121.94 77.86 110.53 112.94 99.38 89.49"/><polygon id="triangle36-44" data-name="triangle36" class="cls-62" points="159.1 125.63 165.42 109.17 110.53 112.94 159.1 125.63"/><polygon id="triangle36-45" data-name="triangle36" class="cls-63" points="113.9 243.44 103.28 209.76 91.1 226.47 113.9 243.44"/><polygon id="triangle36-46" data-name="triangle36" class="cls-64" points="63.45 233.16 91.1 226.47 54.24 204.25 63.45 233.16"/><polygon id="triangle36-47" data-name="triangle36" class="cls-65" points="49.75 204.1 44.85 160.94 54.24 204.25 49.75 204.1"/><polygon id="triangle36-48" data-name="triangle36" class="cls-66" points="91.1 226.47 103.28 209.76 54.24 204.25 91.1 226.47"/><polygon id="triangle36-49" data-name="triangle36" class="cls-67" points="106.03 174.43 130.26 188.75 102.94 193.56 106.03 174.43"/><polygon id="triangle36-50" data-name="triangle36" class="cls-68" points="51.99 136.24 78.69 119.53 53.91 105.59 51.99 136.24"/><polygon id="triangle36-51" data-name="triangle36" class="cls-69" points="80.38 81.1 81.28 82.39 53.91 105.59 80.38 81.1"/><polygon id="triangle36-52" data-name="triangle36" class="cls-70" points="203.4 243.74 192.88 199.59 215.12 193.38 203.4 243.74"/><polygon class="cls-71" points="387.08 226.99 346.74 219.1 323.1 233.12 387.08 230.62 387.08 226.99"/><polygon id="triangle36-53" data-name="triangle36" class="cls-72" points="314.75 194.84 323.34 188.3 296.62 171.6 314.75 194.84"/><polygon id="triangle36-54" data-name="triangle36" class="cls-73" points="16.86 241 8.45 220.3 31.61 198.12 16.86 241"/><polygon id="triangle36-55" data-name="triangle36" class="cls-74" points="16.86 241 49.75 204.1 31.61 198.12 16.86 241"/><polygon id="triangle36-56" data-name="triangle36" class="cls-75" points="203.48 75.77 218.7 79.13 211 80.66 203.48 75.77"/><polygon id="triangle36-57" data-name="triangle36" class="cls-76" points="165.42 109.17 203.48 75.77 211 80.66 165.42 109.17"/><polygon id="triangle36-58" data-name="triangle36" class="cls-22" points="263.75 96.19 255.97 67.37 232.18 97.67 263.75 96.19"/><polygon id="triangle36-59" data-name="triangle36" class="cls-23" points="323.34 188.3 310.66 142.64 360.07 147.89 323.34 188.3"/><polygon id="triangle36-60" data-name="triangle36" class="cls-24" points="323.34 188.3 382.47 193.35 360.07 147.89 323.34 188.3"/><polygon class="cls-25" points="120.52 249.02 113.9 243.44 115.86 249.02 120.52 249.02"/><polygon class="cls-26" points="144.26 249.02 141.05 239.57 113.9 243.44 120.52 249.02 144.26 249.02"/><polygon id="triangle36-61" data-name="triangle36" class="cls-27" points="-25.95 125.41 20.69 144.38 -3.79 156.79 -25.95 125.41"/><polygon id="triangle36-62" data-name="triangle36" class="cls-28" points="263.75 96.19 269.36 84.61 317.97 107.95 263.75 96.19"/><polygon id="triangle36-63" data-name="triangle36" class="cls-29" points="319.21 232.27 339.39 207.78 323.1 233.12 319.21 232.27"/><polygon id="triangle36-64" data-name="triangle36" class="cls-30" points="327.9 37.75 314.7 12.16 355 34.19 327.9 37.75"/><polygon id="triangle36-65" data-name="triangle36" class="cls-31" points="141.05 239.57 174.57 215.37 199.24 244.45 141.05 239.57"/><polygon id="triangle36-66" data-name="triangle36" class="cls-32" points="81.28 82.39 99.38 89.49 93.96 92.72 81.28 82.39"/><polygon id="triangle36-67" data-name="triangle36" class="cls-33" points="78.52 167.59 90.35 116.61 106.03 174.43 78.52 167.59"/><polygon id="triangle36-68" data-name="triangle36" class="cls-34" points="93.96 92.72 99.38 89.49 92.32 103.72 93.96 92.72"/><polygon id="triangle36-69" data-name="triangle36" class="cls-35" points="160.29 72.75 203.48 75.77 193.03 32.11 160.29 72.75"/><polygon id="triangle36-70" data-name="triangle36" class="cls-36" points="157.1 208.38 147.57 184.9 192.88 199.59 157.1 208.38"/><polygon id="triangle36-71" data-name="triangle36" class="cls-37" points="314.7 12.16 321.62 -17.59 293.01 -23.65 314.7 12.16"/><polygon class="cls-38" points="59.79 249.02 51.04 242.09 49.56 249.02 59.79 249.02"/><polygon class="cls-39" points="198.69 249.02 199.24 244.45 194.77 249.02 198.69 249.02"/><polygon id="triangle36-72" data-name="triangle36" class="cls-40" points="314.7 12.16 369.24 3.16 348.29 -17.84 314.7 12.16"/><polygon id="triangle36-73" data-name="triangle36" class="cls-41" points="317.97 107.95 360.07 147.89 363.88 115.65 317.97 107.95"/><polygon id="triangle36-74" data-name="triangle36" class="cls-42" points="78.52 167.59 90.35 116.61 78.69 119.53 78.52 167.59"/><polygon id="triangle36-75" data-name="triangle36" class="cls-43" points="269.36 84.61 317.97 107.95 327.5 57.2 269.36 84.61"/><polygon id="triangle36-76" data-name="triangle36" class="cls-44" points="267.36 27.93 327.9 37.75 327.5 57.2 267.36 27.93"/><polygon id="triangle36-77" data-name="triangle36" class="cls-45" points="203.48 75.77 218.7 79.13 230.92 58.55 203.48 75.77"/><polygon id="triangle36-78" data-name="triangle36" class="cls-46" points="203.48 75.77 210.35 43.59 230.92 58.55 203.48 75.77"/><polygon id="triangle36-79" data-name="triangle36" class="cls-47" points="218.7 79.13 239.07 58.07 230.92 58.55 218.7 79.13"/><polygon id="triangle36-80" data-name="triangle36" class="cls-48" points="239.07 58.07 219.19 25.64 230.92 58.55 239.07 58.07"/><polygon id="triangle36-81" data-name="triangle36" class="cls-49" points="125.73 216.02 157.1 208.38 130.26 188.75 125.73 216.02"/><polygon id="triangle36-82" data-name="triangle36" class="cls-50" points="20.69 144.38 51.99 136.24 40.33 156.43 20.69 144.38"/><polygon class="cls-51" points="49.56 249.02 51.04 242.09 16.86 241 26.99 249.02 49.56 249.02"/><polygon id="triangle36-83" data-name="triangle36" class="cls-52" points="51.04 242.09 49.75 204.1 16.86 241 51.04 242.09"/><polygon id="triangle36-84" data-name="triangle36" class="cls-53" points="284.93 199.21 319.21 232.27 314.75 194.84 284.93 199.21"/><polygon id="triangle36-85" data-name="triangle36" class="cls-54" points="319.21 232.27 339.39 207.78 314.75 194.84 319.21 232.27"/><polygon id="triangle36-86" data-name="triangle36" class="cls-55" points="250.07 239.96 284.93 199.21 260.91 183.63 250.07 239.96"/><polygon id="triangle36-87" data-name="triangle36" class="cls-56" points="147.57 184.9 159.1 125.63 179.19 153.25 147.57 184.9"/><polygon id="triangle36-88" data-name="triangle36" class="cls-57" points="213.06 151.54 250.05 138.61 235.18 186.79 213.06 151.54"/><polygon class="cls-58" points="319.02 249.02 323.1 233.12 314 249.02 319.02 249.02"/><polygon id="triangle36-89" data-name="triangle36" class="cls-59" points="90.35 116.61 92.32 103.72 110.53 112.94 90.35 116.61"/><polygon id="triangle36-90" data-name="triangle36" class="cls-60" points="92.32 103.72 99.38 89.49 110.53 112.94 92.32 103.72"/><polygon id="triangle36-91" data-name="triangle36" class="cls-61" points="99.38 89.49 121.94 77.86 110.53 112.94 99.38 89.49"/><polygon id="triangle36-92" data-name="triangle36" class="cls-62" points="159.1 125.63 165.42 109.17 110.53 112.94 159.1 125.63"/><polygon id="triangle36-93" data-name="triangle36" class="cls-63" points="113.9 243.44 103.28 209.76 91.1 226.47 113.9 243.44"/><polygon id="triangle36-94" data-name="triangle36" class="cls-64" points="63.45 233.16 91.1 226.47 54.24 204.25 63.45 233.16"/><polygon id="triangle36-95" data-name="triangle36" class="cls-65" points="49.75 204.1 44.85 160.94 54.24 204.25 49.75 204.1"/><polygon id="triangle36-96" data-name="triangle36" class="cls-66" points="91.1 226.47 103.28 209.76 54.24 204.25 91.1 226.47"/><polygon id="triangle36-97" data-name="triangle36" class="cls-67" points="106.03 174.43 130.26 188.75 102.94 193.56 106.03 174.43"/><polygon id="triangle36-98" data-name="triangle36" class="cls-68" points="51.99 136.24 78.69 119.53 53.91 105.59 51.99 136.24"/><polygon id="triangle36-99" data-name="triangle36" class="cls-69" points="80.38 81.1 81.28 82.39 53.91 105.59 80.38 81.1"/><polygon id="triangle36-100" data-name="triangle36" class="cls-70" points="203.4 243.74 192.88 199.59 215.12 193.38 203.4 243.74"/><polygon class="cls-71" points="387.08 226.99 346.74 219.1 323.1 233.12 387.08 230.62 387.08 226.99"/><polygon id="triangle36-101" data-name="triangle36" class="cls-72" points="314.75 194.84 323.34 188.3 296.62 171.6 314.75 194.84"/><polygon id="triangle36-102" data-name="triangle36" class="cls-73" points="16.86 241 8.45 220.3 31.61 198.12 16.86 241"/><polygon id="triangle36-103" data-name="triangle36" class="cls-74" points="16.86 241 49.75 204.1 31.61 198.12 16.86 241"/><polygon id="triangle36-104" data-name="triangle36" class="cls-75" points="203.48 75.77 218.7 79.13 211 80.66 203.48 75.77"/><polygon id="triangle36-105" data-name="triangle36" class="cls-76" points="165.42 109.17 203.48 75.77 211 80.66 165.42 109.17"/><g id="triangle36-106" data-name="triangle36" class="cls-77"><path class="cls-78" d="M200.44,133.44,231,94.49l10,37.06Zm30.24-37.22-28.55,36.35L240,130.8Z"/></g><g id="triangle36-107" data-name="triangle36" class="cls-79"><path class="cls-78" d="M314.38,246.43l-16.1-58L361,195.11Zm-15-57.09,15.41,55.5,44.64-49.11Z"/></g><g class="cls-80"><path class="cls-78" d="M387.26,249.42H354.21L313.74,246l46.57-51.24Zm-71.86-4.11,38.84,3.32H386l-25.87-52.51Z"/></g><g id="triangle36-108" data-name="triangle36" class="cls-81"><path class="cls-78" d="M36.59,123.4l-23.51-9.22L41,84.36Zm-22.14-9.53,21.47,8.42L40,86.64Z"/></g><g id="triangle36-109" data-name="triangle36" class="cls-82"><path class="cls-78" d="M311.1,146.89l-71.16-15.43,7.37-15.21Zm-70-16,63.61,13.79-57-27.39Z"/></g><g id="triangle36-110" data-name="triangle36" class="cls-7"><path class="cls-78" d="M320,59l-.13-.25-17-32.94,52.27,28.57ZM304.78,27.72l15.68,30.41,32.2-4.24Z"/></g><g id="triangle36-111" data-name="triangle36" class="cls-83"><path class="cls-78" d="M29.49,127.34,11.55,112.73l25.6,10ZM16,115.32l13.58,11.06,5.8-3.46Z"/></g><g id="triangle36-112" data-name="triangle36" class="cls-84"><path class="cls-78" d="M45.08,228.94,9.87,220.19,25,154.92Zm-34.27-9.33L44,227.85,25.07,158.16Z"/></g><g id="triangle36-113" data-name="triangle36" class="cls-85"><path class="cls-78" d="M26.73,143l2.43-16.34,8.05-4.8Zm3.16-15.85-1.64,11,7.06-14.23Z"/></g><g id="triangle36-114" data-name="triangle36" class="cls-86"><path class="cls-78" d="M166.14,106.23l-55-3.84,41.66-51.72Zm-53.4-4.53,52.38,3.67L152.44,52.42Z"/></g><g class="cls-87"><path class="cls-78" d="M122.14,249.42H99l-3.51-8.65Zm-22.64-.79h17.64L96.83,242Z"/></g><g id="triangle36-115" data-name="triangle36" class="cls-11"><path class="cls-78" d="M304,27.79,276.07-18.33l36.84,7.81Zm-26.32-45,26,42.9L312-9.91Z"/></g><g id="triangle36-116" data-name="triangle36" class="cls-12"><path class="cls-78" d="M302.56,27.36l43-38.43,26.84,26.9Zm43-37.34L305.12,26.14,370.79,15.3Z"/></g><g id="triangle36-117" data-name="triangle36" class="cls-88"><path class="cls-78" d="M360.52,196.25l-53.83-51.07L365.38,155Zm-51.41-49.86,50.8,48.2,4.6-38.91Z"/></g><g id="triangle36-118" data-name="triangle36" class="cls-89"><path class="cls-78" d="M9.93,223.4l.23-63.53L25.57,156Zm1-62.91-.2,55.9,13.76-59.31Z"/></g><g id="triangle36-119" data-name="triangle36" class="cls-90"><path class="cls-78" d="M254.48,3.88,205-20.68l49.95-10.57Zm-47.1-24.26,46.32,23,.43-32.88Z"/></g><g id="triangle36-120" data-name="triangle36" class="cls-13"><path class="cls-78" d="M308.19,146.37l-61.62-29.6L320.27,82Zm-59.77-29.59,59.19,28.43,11.59-61.8Z"/></g><g id="triangle36-121" data-name="triangle36" class="cls-14"><path class="cls-78" d="M320.12,83.35l-77.7-37.82,78.22,12.69ZM247.6,47.17,319.35,82.1l.48-23.21Z"/></g><g id="triangle36-122" data-name="triangle36" class="cls-91"><path class="cls-78" d="M184.73,110.41,164.6,106,200.9,83.2Zm-18.07-4.79,17.68,3.9,14.21-23.91Z"/></g><g id="triangle36-123" data-name="triangle36" class="cls-92"><path class="cls-78" d="M165.05,106.63l8.85-41.5,26.53,19.3Zm9.37-40.14L166.21,105,199,84.38Z"/></g><g id="triangle36-124" data-name="triangle36" class="cls-93"><path class="cls-78" d="M182.47,112.67l17-28.65,11.36-.68ZM200,84.78l-13.35,22.48,22.25-23Z"/></g><g id="triangle36-125" data-name="triangle36" class="cls-94"><path class="cls-78" d="M199.45,84.81,183.51,40.06l27,44.09ZM186.8,46.94,200,84l9.17-.55Z"/></g><g class="cls-95"><path class="cls-78" d="M79.71,249.42h-6l.65-3.92Zm-5.08-.79h2.66l-2.37-1.74Z"/></g><g id="triangle36-126" data-name="triangle36" class="cls-96"><path class="cls-78" d="M35.78,123.54,40.2,84.66,65,108.49Zm5-37.2-4.07,35.82L63.63,108.3Z"/></g><g id="triangle36-127" data-name="triangle36" class="cls-97"><path class="cls-78" d="M64.94,109.56,39.11,84.7l22,6.1Zm-23-23.26,21.75,20.93L60.42,91.44Z"/></g><g class="cls-98"><path class="cls-78" d="M252.5,249.42H234.75l2-10.24Zm-16.79-.79h14.11l-12.55-8.14Z"/></g><g id="triangle36-128" data-name="triangle36" class="cls-99"><path class="cls-78" d="M95.51,242.6l14.75-75.81L136,202.12l-.23.24Zm15.18-73.88L96.78,240.21,134.92,202Z"/></g><g id="triangle36-129" data-name="triangle36" class="cls-100"><path class="cls-78" d="M205.14,244.7l-28.21-44.95,47.18-16.49Zm-27-44.53,26.76,42.65,18-58.3Z"/></g><g id="triangle36-130" data-name="triangle36" class="cls-101"><path class="cls-78" d="M24.57,157l2.61-17.1,24.16,12.24Zm3.23-15.9-2.28,14.93,23.37-4.25Z"/></g><g id="triangle36-131" data-name="triangle36" class="cls-102"><path class="cls-78" d="M51,152.86,27,140.71l9.31-18.77ZM28,140.36l21.24,10.75-13-27.36Z"/></g><g id="triangle36-132" data-name="triangle36" class="cls-103"><path class="cls-78" d="M50.18,153.05,35.74,122.67,65,107.6Zm-13.4-30,13.27,27.9,13.58-41.73Z"/></g><g id="triangle36-133" data-name="triangle36" class="cls-104"><path class="cls-78" d="M110.72,168.23l-63-16.47,71.24-4.9Zm-58.17-16,57.68,15.06,7.51-19.54Z"/></g><g class="cls-105"><path class="cls-78" d="M58.6,249.42H40.73l3.49-21.66L75.76,246.4Zm-16.94-.79H58.54l15-2.64L44.82,229Z"/></g><g id="triangle36-134" data-name="triangle36" class="cls-106"><path class="cls-78" d="M-23.07,181.68l2.47-39.47,31.93,17.95Zm3.18-38.17-2.29,36.68,32-20Z"/></g><g id="triangle36-135" data-name="triangle36" class="cls-107"><path class="cls-78" d="M-20,143.16l-.53-.59,33.23-30.74,1.59,2.26ZM12.58,113-6.6,130.77,13.23,114Z"/></g><g id="triangle36-136" data-name="triangle36" class="cls-108"><path class="cls-78" d="M61,91.82l-9.74-8.09L66.7,69.61ZM52.46,83.7l8.07,6.72L65.27,72Z"/></g><g class="cls-109"><path class="cls-78" d="M310.26,249.42H300l-.12-.15-20.21-25.91,35.58,22.25Zm-9.87-.79H310l3.88-3-30.81-19.26Z"/></g><g id="triangle36-137" data-name="triangle36" class="cls-18"><path class="cls-78" d="M319.3,84.7l.56-27L328,65Zm1.31-25.28-.44,21.33L327,65.16Z"/></g><g id="triangle36-138" data-name="triangle36" class="cls-19"><path class="cls-78" d="M327.42,65.52l-8.09-7.25,37.51-4.93Zm-6.28-6.69,6.44,5.77L351,54.91Z"/></g><g id="triangle36-139" data-name="triangle36" class="cls-110"><path class="cls-78" d="M174.89,112.29l-11.3-7.35,22.87,5Zm-7.22-5.64,7.39,4.8,7.55-1.5Z"/></g><g id="triangle36-140" data-name="triangle36" class="cls-111"><path class="cls-78" d="M118.54,147.64l-.47-.64,47.52-41.7,10.12,6.58Zm47.13-41.35-43.4,38.08,52-32.5Z"/></g><g class="cls-20"><path class="cls-112" d="M233,97.09a1,1,0,1,1-1.64,1.15A1,1,0,0,1,233,97.09Z"/><path class="cls-112" d="M256.79,66.8a1,1,0,0,1-1.64,1.14,1,1,0,1,1,1.64-1.14Z"/><path class="cls-112" d="M264.57,95.62a1,1,0,0,1-.25,1.4,1,1,0,0,1-1.15-1.65A1,1,0,0,1,264.57,95.62Z"/><path class="cls-112" d="M311.48,142.06a1,1,0,1,1-1.39-.24A1,1,0,0,1,311.48,142.06Z"/><path class="cls-112" d="M324.16,187.73a1,1,0,0,1-.25,1.39,1,1,0,1,1-1.14-1.64A1,1,0,0,1,324.16,187.73Z"/><path class="cls-112" d="M324.16,187.73a1,1,0,0,1-.25,1.39,1,1,0,1,1-1.14-1.64A1,1,0,0,1,324.16,187.73Z"/><path class="cls-112" d="M114.72,242.87a1,1,0,0,1-.25,1.39,1,1,0,1,1-1.14-1.64A1,1,0,0,1,114.72,242.87Z"/><path class="cls-112" d="M141.87,239a1,1,0,0,1-.24,1.39,1,1,0,1,1-1.15-1.64A1,1,0,0,1,141.87,239Z"/><path class="cls-112" d="M114.72,242.87a1,1,0,0,1-.25,1.39,1,1,0,1,1-1.14-1.64A1,1,0,0,1,114.72,242.87Z"/><path class="cls-112" d="M21.51,143.8a1,1,0,0,1-.24,1.4,1,1,0,1,1-1.15-1.65A1,1,0,0,1,21.51,143.8Z"/><path class="cls-112" d="M100.2,88.92a1,1,0,0,1-.25,1.39,1,1,0,0,1-1.39-.24,1,1,0,0,1,.24-1.4A1,1,0,0,1,100.2,88.92Z"/><path class="cls-112" d="M82.1,81.82a1,1,0,0,1-.25,1.39,1,1,0,0,1-1.15-1.64A1,1,0,0,1,82.1,81.82Z"/><path class="cls-112" d="M318.79,107.38a1,1,0,1,1-1.64,1.14,1,1,0,0,1,1.64-1.14Z"/><path class="cls-112" d="M270.18,84a1,1,0,1,1-1.39-.25A1,1,0,0,1,270.18,84Z"/><path class="cls-112" d="M264.57,95.62a1,1,0,0,1-.25,1.4,1,1,0,0,1-1.15-1.65A1,1,0,0,1,264.57,95.62Z"/><path class="cls-112" d="M323.92,232.55a1,1,0,0,1-.25,1.39,1,1,0,0,1-1.15-1.64A1,1,0,0,1,323.92,232.55Z"/><path class="cls-112" d="M320,231.69a1,1,0,0,1-.24,1.4,1,1,0,0,1-1.4-.25,1,1,0,0,1,.25-1.39A1,1,0,0,1,320,231.69Z"/><path class="cls-112" d="M315.52,11.59a1,1,0,0,1-.24,1.39,1,1,0,0,1-1.4-.24,1,1,0,0,1,.25-1.4A1,1,0,0,1,315.52,11.59Z"/><path class="cls-112" d="M328.72,37.18a1,1,0,0,1-.25,1.39,1,1,0,0,1-1.39-.24,1,1,0,0,1,.24-1.4A1,1,0,0,1,328.72,37.18Z"/><path class="cls-112" d="M200.06,243.88a1,1,0,1,1-1.64,1.14,1,1,0,0,1,1.64-1.14Z"/><path class="cls-112" d="M175.39,214.79a1,1,0,1,1-1.64,1.15,1,1,0,1,1,1.64-1.15Z"/><path class="cls-112" d="M141.87,239a1,1,0,0,1-.24,1.39,1,1,0,1,1-1.15-1.64A1,1,0,0,1,141.87,239Z"/><path class="cls-112" d="M94.78,92.15a1,1,0,0,1-1.64,1.15,1,1,0,1,1,1.64-1.15Z"/><path class="cls-112" d="M100.2,88.92a1,1,0,0,1-.25,1.39,1,1,0,0,1-1.39-.24,1,1,0,0,1,.24-1.4A1,1,0,0,1,100.2,88.92Z"/><path class="cls-112" d="M82.1,81.82a1,1,0,0,1-.25,1.39,1,1,0,0,1-1.15-1.64A1,1,0,0,1,82.1,81.82Z"/><path class="cls-112" d="M106.85,173.85A1,1,0,0,1,105.2,175a1,1,0,0,1,1.65-1.15Z"/><path class="cls-112" d="M91.17,116a1,1,0,1,1-1.64,1.15A1,1,0,0,1,91.17,116Z"/><path class="cls-112" d="M79.34,167a1,1,0,1,1-1.39-.25A1,1,0,0,1,79.34,167Z"/><path class="cls-112" d="M93.14,103.15a1,1,0,0,1-1.64,1.15,1,1,0,0,1,.25-1.4A1,1,0,0,1,93.14,103.15Z"/><path class="cls-112" d="M100.2,88.92a1,1,0,0,1-.25,1.39,1,1,0,0,1-1.39-.24,1,1,0,0,1,.24-1.4A1,1,0,0,1,100.2,88.92Z"/><path class="cls-112" d="M94.78,92.15a1,1,0,0,1-1.64,1.15,1,1,0,1,1,1.64-1.15Z"/><path class="cls-112" d="M193.85,31.54a1,1,0,0,1-1.64,1.15,1,1,0,1,1,1.64-1.15Z"/><path class="cls-112" d="M204.31,75.2a1,1,0,0,1-1.65,1.15,1,1,0,0,1,1.65-1.15Z"/><path class="cls-112" d="M161.11,72.18a1,1,0,1,1-1.64,1.14,1,1,0,0,1,1.64-1.14Z"/><path class="cls-112" d="M193.7,199a1,1,0,1,1-1.64,1.14A1,1,0,0,1,193.7,199Z"/><path class="cls-112" d="M148.39,184.32a1,1,0,0,1-.25,1.4,1,1,0,0,1-1.39-.25,1,1,0,0,1,1.64-1.15Z"/><path class="cls-112" d="M157.92,207.81a1,1,0,1,1-1.39-.25A1,1,0,0,1,157.92,207.81Z"/><path class="cls-112" d="M315.52,11.59a1,1,0,0,1-.24,1.39,1,1,0,0,1-1.4-.24,1,1,0,0,1,.25-1.4A1,1,0,0,1,315.52,11.59Z"/><path class="cls-112" d="M51.87,241.52a1,1,0,1,1-1.4-.25A1,1,0,0,1,51.87,241.52Z"/><path class="cls-112" d="M200.06,243.88a1,1,0,1,1-1.64,1.14,1,1,0,0,1,1.64-1.14Z"/><path class="cls-112" d="M315.52,11.59a1,1,0,0,1-.24,1.39,1,1,0,0,1-1.4-.24,1,1,0,0,1,.25-1.4A1,1,0,0,1,315.52,11.59Z"/><path class="cls-112" d="M18.59,96.81a1,1,0,0,1-.25,1.39A1,1,0,0,1,17,98a1,1,0,1,1,1.64-1.14Z"/><path class="cls-112" d="M18.59,96.81a1,1,0,0,1-.25,1.39A1,1,0,0,1,17,98a1,1,0,1,1,1.64-1.14Z"/><path class="cls-112" d="M318.79,107.38a1,1,0,1,1-1.64,1.14,1,1,0,0,1,1.64-1.14Z"/><path class="cls-112" d="M18.59,96.81a1,1,0,0,1-.25,1.39A1,1,0,0,1,17,98a1,1,0,1,1,1.64-1.14Z"/><path class="cls-112" d="M79.51,119a1,1,0,1,1-1.64,1.14A1,1,0,0,1,79.51,119Z"/><path class="cls-112" d="M91.17,116a1,1,0,1,1-1.64,1.15A1,1,0,0,1,91.17,116Z"/><path class="cls-112" d="M79.34,167a1,1,0,1,1-1.39-.25A1,1,0,0,1,79.34,167Z"/><path class="cls-112" d="M328.31,56.63a1,1,0,0,1-.24,1.39,1,1,0,0,1-1.4-.24,1,1,0,0,1,.25-1.4A1,1,0,0,1,328.31,56.63Z"/><path class="cls-112" d="M318.79,107.38a1,1,0,1,1-1.64,1.14,1,1,0,0,1,1.64-1.14Z"/><path class="cls-112" d="M270.18,84a1,1,0,1,1-1.39-.25A1,1,0,0,1,270.18,84Z"/><path class="cls-112" d="M328.31,56.63a1,1,0,0,1-.24,1.39,1,1,0,0,1-1.4-.24,1,1,0,0,1,.25-1.4A1,1,0,0,1,328.31,56.63Z"/><path class="cls-112" d="M328.72,37.18a1,1,0,0,1-.25,1.39,1,1,0,0,1-1.39-.24,1,1,0,0,1,.24-1.4A1,1,0,0,1,328.72,37.18Z"/><path class="cls-112" d="M268.18,27.36a1,1,0,1,1-1.39-.25A1,1,0,0,1,268.18,27.36Z"/><path class="cls-112" d="M231.74,58a1,1,0,1,1-1.39-.25A1,1,0,0,1,231.74,58Z"/><path class="cls-112" d="M219.52,78.55a1,1,0,1,1-1.64,1.15,1,1,0,0,1,1.64-1.15Z"/><path class="cls-112" d="M204.31,75.2a1,1,0,0,1-1.65,1.15,1,1,0,0,1,1.65-1.15Z"/><path class="cls-112" d="M231.74,58a1,1,0,1,1-1.39-.25A1,1,0,0,1,231.74,58Z"/><path class="cls-112" d="M211.17,43a1,1,0,0,1-.25,1.39,1,1,0,0,1-1.14-1.64A1,1,0,0,1,211.17,43Z"/><path class="cls-112" d="M204.31,75.2a1,1,0,0,1-1.65,1.15,1,1,0,0,1,1.65-1.15Z"/><path class="cls-112" d="M231.74,58a1,1,0,1,1-1.39-.25A1,1,0,0,1,231.74,58Z"/><path class="cls-112" d="M239.89,57.49a1,1,0,0,1-.24,1.4,1,1,0,0,1-1.4-.25,1,1,0,0,1,.25-1.39A1,1,0,0,1,239.89,57.49Z"/><path class="cls-112" d="M219.52,78.55a1,1,0,1,1-1.64,1.15,1,1,0,0,1,1.64-1.15Z"/><path class="cls-112" d="M231.74,58a1,1,0,1,1-1.39-.25A1,1,0,0,1,231.74,58Z"/><path class="cls-112" d="M220,25.07a1,1,0,1,1-1.4-.25A1,1,0,0,1,220,25.07Z"/><path class="cls-112" d="M239.89,57.49a1,1,0,0,1-.24,1.4,1,1,0,0,1-1.4-.25,1,1,0,0,1,.25-1.39A1,1,0,0,1,239.89,57.49Z"/><path class="cls-112" d="M131.08,188.18a1,1,0,1,1-1.39-.25A1,1,0,0,1,131.08,188.18Z"/><path class="cls-112" d="M157.92,207.81a1,1,0,1,1-1.39-.25A1,1,0,0,1,157.92,207.81Z"/><path class="cls-112" d="M126.55,215.45a1,1,0,0,1-.25,1.39,1,1,0,0,1-1.15-1.64A1,1,0,0,1,126.55,215.45Z"/><path class="cls-112" d="M41.15,155.85a1,1,0,0,1-.25,1.4,1,1,0,0,1-1.39-.25,1,1,0,0,1,1.64-1.15Z"/><path class="cls-112" d="M52.81,135.66a1,1,0,0,1-.24,1.4,1,1,0,0,1-1.4-.25,1,1,0,0,1,.25-1.39A1,1,0,0,1,52.81,135.66Z"/><path class="cls-112" d="M21.51,143.8a1,1,0,0,1-.24,1.4,1,1,0,1,1-1.15-1.65A1,1,0,0,1,21.51,143.8Z"/><path class="cls-112" d="M17.68,240.43a1,1,0,0,1-.24,1.39,1,1,0,1,1-1.15-1.64A1,1,0,0,1,17.68,240.43Z"/><path class="cls-112" d="M51.87,241.52a1,1,0,1,1-1.4-.25A1,1,0,0,1,51.87,241.52Z"/><path class="cls-112" d="M17.68,240.43a1,1,0,0,1-.24,1.39,1,1,0,1,1-1.15-1.64A1,1,0,0,1,17.68,240.43Z"/><path class="cls-112" d="M50.57,203.52a1,1,0,0,1-.25,1.4,1,1,0,0,1-1.39-.25,1,1,0,0,1,1.64-1.15Z"/><path class="cls-112" d="M51.87,241.52a1,1,0,1,1-1.4-.25A1,1,0,0,1,51.87,241.52Z"/><path class="cls-112" d="M315.57,194.27a1,1,0,1,1-1.64,1.14,1,1,0,0,1,1.64-1.14Z"/><path class="cls-112" d="M320,231.69a1,1,0,0,1-.24,1.4,1,1,0,0,1-1.4-.25,1,1,0,0,1,.25-1.39A1,1,0,0,1,320,231.69Z"/><path class="cls-112" d="M285.75,198.64a1,1,0,1,1-1.4-.25A1,1,0,0,1,285.75,198.64Z"/><path class="cls-112" d="M315.57,194.27a1,1,0,1,1-1.64,1.14,1,1,0,0,1,1.64-1.14Z"/><path class="cls-112" d="M320,231.69a1,1,0,0,1-.24,1.4,1,1,0,0,1-1.4-.25,1,1,0,0,1,.25-1.39A1,1,0,0,1,320,231.69Z"/><path class="cls-112" d="M122.76,77.29a1,1,0,1,1-1.64,1.14,1,1,0,0,1,.25-1.39A1,1,0,0,1,122.76,77.29Z"/><path class="cls-112" d="M100.2,88.92a1,1,0,0,1-.25,1.39,1,1,0,0,1-1.39-.24,1,1,0,0,1,.24-1.4A1,1,0,0,1,100.2,88.92Z"/><path class="cls-112" d="M122.76,77.29a1,1,0,1,1-1.64,1.14,1,1,0,0,1,.25-1.39A1,1,0,0,1,122.76,77.29Z"/><path class="cls-112" d="M261.73,183.06a1,1,0,1,1-1.39-.25A1,1,0,0,1,261.73,183.06Z"/><path class="cls-112" d="M285.75,198.64a1,1,0,1,1-1.4-.25A1,1,0,0,1,285.75,198.64Z"/><path class="cls-112" d="M250.89,239.38a1,1,0,1,1-1.39-.25A1,1,0,0,1,250.89,239.38Z"/><path class="cls-112" d="M180,152.68a1,1,0,1,1-1.4-.25A1,1,0,0,1,180,152.68Z"/><path class="cls-112" d="M159.92,125.06a1,1,0,1,1-1.39-.25A1,1,0,0,1,159.92,125.06Z"/><path class="cls-112" d="M148.39,184.32a1,1,0,0,1-.25,1.4,1,1,0,0,1-1.39-.25,1,1,0,0,1,1.64-1.15Z"/><path class="cls-112" d="M236,186.22a1,1,0,0,1-.25,1.39,1,1,0,1,1-1.14-1.64A1,1,0,0,1,236,186.22Z"/><path class="cls-112" d="M250.88,138a1,1,0,1,1-1.4-.25A1,1,0,0,1,250.88,138Z"/><path class="cls-112" d="M213.88,151a1,1,0,1,1-1.39-.25A1,1,0,0,1,213.88,151Z"/><path class="cls-112" d="M323.92,232.55a1,1,0,0,1-.25,1.39,1,1,0,0,1-1.15-1.64A1,1,0,0,1,323.92,232.55Z"/><path class="cls-112" d="M111.35,112.37a1,1,0,0,1-.25,1.39,1,1,0,1,1,.25-1.39Z"/><path class="cls-112" d="M93.14,103.15a1,1,0,0,1-1.64,1.15,1,1,0,0,1,.25-1.4A1,1,0,0,1,93.14,103.15Z"/><path class="cls-112" d="M91.17,116a1,1,0,1,1-1.64,1.15A1,1,0,0,1,91.17,116Z"/><path class="cls-112" d="M111.35,112.37a1,1,0,0,1-.25,1.39,1,1,0,1,1,.25-1.39Z"/><path class="cls-112" d="M100.2,88.92a1,1,0,0,1-.25,1.39,1,1,0,0,1-1.39-.24,1,1,0,0,1,.24-1.4A1,1,0,0,1,100.2,88.92Z"/><path class="cls-112" d="M93.14,103.15a1,1,0,0,1-1.64,1.15,1,1,0,0,1,.25-1.4A1,1,0,0,1,93.14,103.15Z"/><path class="cls-112" d="M111.35,112.37a1,1,0,0,1-.25,1.39,1,1,0,1,1,.25-1.39Z"/><path class="cls-112" d="M122.76,77.29a1,1,0,1,1-1.64,1.14,1,1,0,0,1,.25-1.39A1,1,0,0,1,122.76,77.29Z"/><path class="cls-112" d="M100.2,88.92a1,1,0,0,1-.25,1.39,1,1,0,0,1-1.39-.24,1,1,0,0,1,.24-1.4A1,1,0,0,1,100.2,88.92Z"/><path class="cls-112" d="M111.35,112.37a1,1,0,0,1-.25,1.39,1,1,0,1,1,.25-1.39Z"/><path class="cls-112" d="M166.24,108.6a1,1,0,1,1-1.39-.25A1,1,0,0,1,166.24,108.6Z"/><path class="cls-112" d="M159.92,125.06a1,1,0,1,1-1.39-.25A1,1,0,0,1,159.92,125.06Z"/><path class="cls-112" d="M91.92,225.9A1,1,0,0,1,90.28,227a1,1,0,1,1,1.64-1.14Z"/><path class="cls-112" d="M104.1,209.19a1,1,0,0,1-1.64,1.15,1,1,0,1,1,1.64-1.15Z"/><path class="cls-112" d="M114.72,242.87a1,1,0,0,1-.25,1.39,1,1,0,1,1-1.14-1.64A1,1,0,0,1,114.72,242.87Z"/><path class="cls-112" d="M55.06,203.68a1,1,0,1,1-1.64,1.14,1,1,0,1,1,1.64-1.14Z"/><path class="cls-112" d="M91.92,225.9A1,1,0,0,1,90.28,227a1,1,0,1,1,1.64-1.14Z"/><path class="cls-112" d="M64.27,232.59a1,1,0,1,1-1.4-.25A1,1,0,0,1,64.27,232.59Z"/><path class="cls-112" d="M55.06,203.68a1,1,0,1,1-1.64,1.14,1,1,0,1,1,1.64-1.14Z"/><path class="cls-112" d="M45.67,160.37A1,1,0,1,1,44,161.51a1,1,0,0,1,1.64-1.14Z"/><path class="cls-112" d="M50.57,203.52a1,1,0,0,1-.25,1.4,1,1,0,0,1-1.39-.25,1,1,0,0,1,1.64-1.15Z"/><path class="cls-112" d="M55.06,203.68a1,1,0,1,1-1.64,1.14,1,1,0,1,1,1.64-1.14Z"/><path class="cls-112" d="M104.1,209.19a1,1,0,0,1-1.64,1.15,1,1,0,1,1,1.64-1.15Z"/><path class="cls-112" d="M91.92,225.9A1,1,0,0,1,90.28,227a1,1,0,1,1,1.64-1.14Z"/><path class="cls-112" d="M103.76,193a1,1,0,1,1-1.39-.25A1,1,0,0,1,103.76,193Z"/><path class="cls-112" d="M131.08,188.18a1,1,0,1,1-1.39-.25A1,1,0,0,1,131.08,188.18Z"/><path class="cls-112" d="M106.85,173.85A1,1,0,0,1,105.2,175a1,1,0,0,1,1.65-1.15Z"/><path class="cls-112" d="M54.73,105a1,1,0,0,1-.25,1.4,1,1,0,0,1-1.15-1.65A1,1,0,0,1,54.73,105Z"/><path class="cls-112" d="M79.51,119a1,1,0,1,1-1.64,1.14A1,1,0,0,1,79.51,119Z"/><path class="cls-112" d="M52.81,135.66a1,1,0,0,1-.24,1.4,1,1,0,0,1-1.4-.25,1,1,0,0,1,.25-1.39A1,1,0,0,1,52.81,135.66Z"/><path class="cls-112" d="M54.73,105a1,1,0,0,1-.25,1.4,1,1,0,0,1-1.15-1.65A1,1,0,0,1,54.73,105Z"/><path class="cls-112" d="M82.1,81.82a1,1,0,0,1-.25,1.39,1,1,0,0,1-1.15-1.64A1,1,0,0,1,82.1,81.82Z"/><path class="cls-112" d="M81.2,80.53a1,1,0,1,1-1.39-.25A1,1,0,0,1,81.2,80.53Z"/><path class="cls-112" d="M215.94,192.81a1,1,0,0,1-.24,1.39,1,1,0,0,1-1.4-.24,1,1,0,0,1,.25-1.4A1,1,0,0,1,215.94,192.81Z"/><path class="cls-112" d="M193.7,199a1,1,0,1,1-1.64,1.14A1,1,0,0,1,193.7,199Z"/><path class="cls-112" d="M204.22,243.17a1,1,0,1,1-1.64,1.14,1,1,0,0,1,1.64-1.14Z"/><path class="cls-112" d="M323.92,232.55a1,1,0,0,1-.25,1.39,1,1,0,0,1-1.15-1.64A1,1,0,0,1,323.92,232.55Z"/><path class="cls-112" d="M297.44,171a1,1,0,1,1-1.39-.25A1,1,0,0,1,297.44,171Z"/><path class="cls-112" d="M324.16,187.73a1,1,0,0,1-.25,1.39,1,1,0,1,1-1.14-1.64A1,1,0,0,1,324.16,187.73Z"/><path class="cls-112" d="M315.57,194.27a1,1,0,1,1-1.64,1.14,1,1,0,0,1,1.64-1.14Z"/><path class="cls-112" d="M32.43,197.55a1,1,0,1,1-1.4-.25A1,1,0,0,1,32.43,197.55Z"/><path class="cls-112" d="M9.27,219.72a1,1,0,0,1-.24,1.4,1,1,0,0,1-1.4-.25,1,1,0,0,1,.25-1.39A1,1,0,0,1,9.27,219.72Z"/><path class="cls-112" d="M17.68,240.43a1,1,0,0,1-.24,1.39,1,1,0,1,1-1.15-1.64A1,1,0,0,1,17.68,240.43Z"/><path class="cls-112" d="M32.43,197.55a1,1,0,1,1-1.4-.25A1,1,0,0,1,32.43,197.55Z"/><path class="cls-112" d="M50.57,203.52a1,1,0,0,1-.25,1.4,1,1,0,0,1-1.39-.25,1,1,0,0,1,1.64-1.15Z"/><path class="cls-112" d="M17.68,240.43a1,1,0,0,1-.24,1.39,1,1,0,1,1-1.15-1.64A1,1,0,0,1,17.68,240.43Z"/><path class="cls-112" d="M328.72,37.18a1,1,0,0,1-.25,1.39,1,1,0,0,1-1.39-.24,1,1,0,0,1,.24-1.4A1,1,0,0,1,328.72,37.18Z"/><path class="cls-112" d="M328.31,56.63a1,1,0,0,1-.24,1.39,1,1,0,0,1-1.4-.24,1,1,0,0,1,.25-1.4A1,1,0,0,1,328.31,56.63Z"/><path class="cls-112" d="M328.72,37.18a1,1,0,0,1-.25,1.39,1,1,0,0,1-1.39-.24,1,1,0,0,1,.24-1.4A1,1,0,0,1,328.72,37.18Z"/><path class="cls-112" d="M211.82,80.09a1,1,0,1,1-1.64,1.14,1,1,0,0,1,.25-1.39A1,1,0,0,1,211.82,80.09Z"/><path class="cls-112" d="M219.52,78.55a1,1,0,1,1-1.64,1.15,1,1,0,0,1,1.64-1.15Z"/><path class="cls-112" d="M204.31,75.2a1,1,0,0,1-1.65,1.15,1,1,0,0,1,1.65-1.15Z"/><path class="cls-112" d="M211.82,80.09a1,1,0,1,1-1.64,1.14,1,1,0,0,1,.25-1.39A1,1,0,0,1,211.82,80.09Z"/><path class="cls-112" d="M204.31,75.2a1,1,0,0,1-1.65,1.15,1,1,0,0,1,1.65-1.15Z"/><path class="cls-112" d="M166.24,108.6a1,1,0,1,1-1.39-.25A1,1,0,0,1,166.24,108.6Z"/></g></g><g class="cls-113"><g id="triangle36-141" data-name="triangle36" class="cls-82"><path class="cls-8" d="M339.71,90.32,244.28,50.41l105,17.15ZM249.83,52l89.52,37.44,9-21.35Z"/></g><g id="triangle36-142" data-name="triangle36" class="cls-7"><path class="cls-8" d="M263.16,229.49l-78.83-37.94,51.21-9.45Zm-76.67-37.65,75,36.09L235.2,182.85Z"/></g><g id="triangle36-143" data-name="triangle36" class="cls-9"><path class="cls-8" d="M161.86,251.79,145.77,181l40.09,10.5Zm-15.19-69.9L162,249.52,185,191.92Z"/></g><g class="cls-10"><path class="cls-8" d="M162.25,255H117.59l-15.85-27,60.55,22.44ZM118,254.29h43.6l0-3.4-58.33-21.62Z"/></g><g class="cls-11"><path class="cls-8" d="M280.55,255H257.29l4.84-27.13Zm-22.46-.67h21.18l-16.76-24.71Z"/></g><g class="cls-12"><path class="cls-8" d="M236.3,255H166.21l-5-4.5,102.15-22.33Zm-69.83-.67H236l25.24-25-98.6,21.55Z"/></g><g id="triangle36-144" data-name="triangle36" class="cls-13"><path class="cls-8" d="M233.83,146.94l12.95-96.21,93.53,39.11Zm13.5-95.25-12.66,94,104.07-55.8Z"/></g><g id="triangle36-145" data-name="triangle36" class="cls-14"><path class="cls-8" d="M350.93,195.47,235,182.78l-1.14-37ZM235.7,182.17,346.44,194.3,234.6,146.84Z"/></g><g id="triangle36-146" data-name="triangle36" class="cls-15"><path class="cls-8" d="M89.45,181l-.21-.24-31.73-36,81.9-5.85ZM58.92,145.39l30.6,34.7,47.87-40.3Z"/></g><g id="triangle36-147" data-name="triangle36" class="cls-16"><path class="cls-8" d="M90.47,181,66,178.86,58,152.16Zm-24-2.76,22,1.91-29.15-25.9Z"/></g><g id="triangle36-148" data-name="triangle36" class="cls-17"><path class="cls-8" d="M49.89,246.41l16.18-68.66,37,51.05Zm16.5-67.07-15.57,66L102,228.45Z"/></g><g id="triangle36-149" data-name="triangle36" class="cls-18"><path class="cls-8" d="M235.73,183.2l-12.11-9.77,10.91-28.81Zm-11.31-10L235,181.75,234,148Z"/></g><g id="triangle36-150" data-name="triangle36" class="cls-19"><path class="cls-8" d="M183,192.49l41.12-19.57,12.08,9.75Zm41-18.78-36.1,17.18,46.72-8.62Z"/></g><g class="cls-20"><path class="cls-21" d="M315.66,122.8a1.5,1.5,0,1,1,2.1.26A1.49,1.49,0,0,1,315.66,122.8Z"/><path class="cls-21" d="M242,57.05a1.5,1.5,0,0,1,2.37-1.84A1.5,1.5,0,0,1,242,57.05Z"/><path class="cls-21" d="M233.75,109.42a1.5,1.5,0,1,1,2.1.27A1.48,1.48,0,0,1,233.75,109.42Z"/><path class="cls-21" d="M308.17,140.54a1.5,1.5,0,1,1,2.1.27A1.5,1.5,0,0,1,308.17,140.54Z"/><path class="cls-21" d="M315.66,122.8a1.5,1.5,0,1,1,2.1.26A1.49,1.49,0,0,1,315.66,122.8Z"/><path class="cls-21" d="M184.14,222.47a1.51,1.51,0,0,1,.27-2.1,1.5,1.5,0,0,1,1.84,2.37A1.51,1.51,0,0,1,184.14,222.47Z"/><path class="cls-21" d="M246,252.26a1.5,1.5,0,1,1,2.1.26A1.5,1.5,0,0,1,246,252.26Z"/><path class="cls-21" d="M224.35,215.06a1.5,1.5,0,1,1,2.1.26A1.51,1.51,0,0,1,224.35,215.06Z"/><path class="cls-21" d="M184.14,222.47a1.51,1.51,0,0,1,.27-2.1,1.5,1.5,0,0,1,1.84,2.37A1.51,1.51,0,0,1,184.14,222.47Z"/><path class="cls-21" d="M152.61,214.21a1.5,1.5,0,1,1,2.1.26A1.49,1.49,0,0,1,152.61,214.21Z"/><path class="cls-21" d="M117.44,252.19a1.5,1.5,0,1,1,2.1.27A1.5,1.5,0,0,1,117.44,252.19Z"/><path class="cls-21" d="M246,252.26a1.5,1.5,0,1,1,2.1.26A1.5,1.5,0,0,1,246,252.26Z"/><path class="cls-21" d="M246,252.26a1.5,1.5,0,1,1,2.1.26A1.5,1.5,0,0,1,246,252.26Z"/><path class="cls-21" d="M233.75,109.42a1.5,1.5,0,1,1,2.1.27A1.48,1.48,0,0,1,233.75,109.42Z"/><path class="cls-21" d="M223.45,186a1.5,1.5,0,1,1,2.1.26A1.49,1.49,0,0,1,223.45,186Z"/><path class="cls-21" d="M233.75,109.42a1.5,1.5,0,1,1,2.1.27A1.48,1.48,0,0,1,233.75,109.42Z"/><path class="cls-21" d="M308.17,140.54a1.5,1.5,0,1,1,2.1.27A1.5,1.5,0,0,1,308.17,140.54Z"/><path class="cls-21" d="M223.45,186a1.5,1.5,0,1,1,2.1.26A1.49,1.49,0,0,1,223.45,186Z"/><path class="cls-21" d="M224.35,215.06a1.5,1.5,0,1,1,2.1.26A1.51,1.51,0,0,1,224.35,215.06Z"/><path class="cls-21" d="M315.54,225.05a1.5,1.5,0,1,1,2.1.26A1.49,1.49,0,0,1,315.54,225.05Z"/><path class="cls-21" d="M81.79,185a1.5,1.5,0,1,1,2.1.27A1.5,1.5,0,0,1,81.79,185Z"/><path class="cls-21" d="M107,213.52a1.5,1.5,0,1,1,2.1.26A1.5,1.5,0,0,1,107,213.52Z"/><path class="cls-21" d="M146.31,180.37a1.5,1.5,0,1,1,2.11.27A1.5,1.5,0,0,1,146.31,180.37Z"/><path class="cls-21" d="M82.18,191.5a1.5,1.5,0,1,1,2.1.26A1.51,1.51,0,0,1,82.18,191.5Z"/><path class="cls-21" d="M88.24,211.89a1.5,1.5,0,1,1,2.1.26A1.5,1.5,0,0,1,88.24,211.89Z"/><path class="cls-21" d="M107,213.52a1.5,1.5,0,1,1,2.1.26A1.5,1.5,0,0,1,107,213.52Z"/><path class="cls-21" d="M117.44,252.19a1.5,1.5,0,1,1,2.1.27A1.5,1.5,0,0,1,117.44,252.19Z"/><path class="cls-21" d="M88.24,211.89a1.5,1.5,0,1,1,2.1.26A1.5,1.5,0,0,1,88.24,211.89Z"/><path class="cls-21" d="M215.22,207.69a1.5,1.5,0,1,1,2.1.26A1.49,1.49,0,0,1,215.22,207.69Z"/><path class="cls-21" d="M224.35,215.06a1.5,1.5,0,1,1,2.1.26A1.51,1.51,0,0,1,224.35,215.06Z"/><path class="cls-21" d="M223.45,186a1.5,1.5,0,1,1,2.1.26A1.49,1.49,0,0,1,223.45,186Z"/><path class="cls-21" d="M215.22,207.69a1.5,1.5,0,1,1,2.1.26A1.49,1.49,0,0,1,215.22,207.69Z"/><path class="cls-21" d="M184.14,222.47a1.51,1.51,0,0,1,.27-2.1,1.5,1.5,0,0,1,1.84,2.37A1.51,1.51,0,0,1,184.14,222.47Z"/><path class="cls-21" d="M224.35,215.06a1.5,1.5,0,1,1,2.1.26A1.51,1.51,0,0,1,224.35,215.06Z"/></g><g id="triangle36-151" data-name="triangle36" class="cls-7"><path class="cls-8" d="M198.16,107.49,119.33,69.55l51.21-9.45ZM121.49,69.84l75,36.09L170.2,60.85Z"/></g><g id="triangle36-152" data-name="triangle36" class="cls-9"><path class="cls-8" d="M96.86,129.79,80.77,59l40.09,10.5ZM81.67,59.89,97,127.52,120,69.92Z"/></g><g class="cls-10"><path class="cls-8" d="M97.25,133H52.59L36.74,106l60.55,22.44ZM53,132.29h43.6l0-3.4L38.28,107.27Z"/></g><g class="cls-11"><path class="cls-8" d="M215.55,133H192.29l4.84-27.13Zm-22.46-.67h21.18l-16.76-24.71Z"/></g><g class="cls-12"><path class="cls-8" d="M171.3,133H101.21l-5-4.5,102.15-22.33Zm-69.83-.67H171l25.24-25-98.6,21.55Z"/></g><g id="triangle36-153" data-name="triangle36" class="cls-13"><path class="cls-8" d="M168.83,24.94l12.95-96.21,93.53,39.11Zm13.5-95.25-12.66,94,104.07-55.8Z"/></g><g id="triangle36-154" data-name="triangle36" class="cls-14"><path class="cls-8" d="M285.93,73.47,170,60.78l-1.14-37ZM170.7,60.17,281.44,72.3,169.6,24.84Z"/></g><g id="triangle36-155" data-name="triangle36" class="cls-15"><path class="cls-8" d="M24.45,59l-.21-.24-31.73-36L74.41,17ZM-6.08,23.39l30.6,34.7,47.87-40.3Z"/></g><g id="triangle36-156" data-name="triangle36" class="cls-16"><path class="cls-8" d="M25.47,59,1,56.86-7,30.16Zm-24-2.76,22,1.91L-5.65,32.24Z"/></g><g id="triangle36-157" data-name="triangle36" class="cls-17"><path class="cls-8" d="M-15.11,124.41,1.07,55.75l37,51.05ZM1.39,57.34l-15.57,66.05L37,106.45Z"/></g><g id="triangle36-158" data-name="triangle36" class="cls-18"><path class="cls-8" d="M170.73,61.2l-12.11-9.77,10.91-28.81Zm-11.31-10L170,59.75,169,26Z"/></g><g id="triangle36-159" data-name="triangle36" class="cls-19"><path class="cls-8" d="M118,70.49l41.12-19.57,12.08,9.75Zm41-18.78-36.1,17.18,46.72-8.62Z"/></g><g class="cls-20"><path class="cls-21" d="M264.5,43.25a1.5,1.5,0,1,1,2.1.26A1.51,1.51,0,0,1,264.5,43.25Z"/><path class="cls-21" d="M250.66.8a1.49,1.49,0,0,1,.26-2.1A1.49,1.49,0,0,1,253-1a1.5,1.5,0,0,1-.26,2.1A1.5,1.5,0,0,1,250.66.8Z"/><path class="cls-21" d="M243.17,18.54a1.5,1.5,0,1,1,2.1.27A1.5,1.5,0,0,1,243.17,18.54Z"/><path class="cls-21" d="M250.66.8a1.49,1.49,0,0,1,.26-2.1A1.49,1.49,0,0,1,253-1a1.5,1.5,0,0,1-.26,2.1A1.5,1.5,0,0,1,250.66.8Z"/><path class="cls-21" d="M119.14,100.47a1.51,1.51,0,0,1,.27-2.1,1.5,1.5,0,0,1,1.84,2.37A1.51,1.51,0,0,1,119.14,100.47Z"/><path class="cls-21" d="M181,130.26a1.5,1.5,0,1,1,2.1.26A1.5,1.5,0,0,1,181,130.26Z"/><path class="cls-21" d="M159.35,93.06a1.5,1.5,0,1,1,2.1.26A1.51,1.51,0,0,1,159.35,93.06Z"/><path class="cls-21" d="M119.14,100.47a1.51,1.51,0,0,1,.27-2.1,1.5,1.5,0,0,1,1.84,2.37A1.51,1.51,0,0,1,119.14,100.47Z"/><path class="cls-21" d="M87.61,92.21a1.5,1.5,0,1,1,2.1.26A1.49,1.49,0,0,1,87.61,92.21Z"/><path class="cls-21" d="M52.44,130.19a1.5,1.5,0,1,1,2.1.27A1.5,1.5,0,0,1,52.44,130.19Z"/><path class="cls-21" d="M181,130.26a1.5,1.5,0,1,1,2.1.26A1.5,1.5,0,0,1,181,130.26Z"/><path class="cls-21" d="M181,130.26a1.5,1.5,0,1,1,2.1.26A1.5,1.5,0,0,1,181,130.26Z"/><path class="cls-21" d="M158.45,64a1.5,1.5,0,1,1,2.1.26A1.49,1.49,0,0,1,158.45,64Z"/><path class="cls-21" d="M243.17,18.54a1.5,1.5,0,1,1,2.1.27A1.5,1.5,0,0,1,243.17,18.54Z"/><path class="cls-21" d="M158.45,64a1.5,1.5,0,1,1,2.1.26A1.49,1.49,0,0,1,158.45,64Z"/><path class="cls-21" d="M159.35,93.06a1.5,1.5,0,1,1,2.1.26A1.51,1.51,0,0,1,159.35,93.06Z"/><path class="cls-21" d="M250.54,103.05a1.5,1.5,0,1,1,2.1.26A1.49,1.49,0,0,1,250.54,103.05Z"/><path class="cls-21" d="M290.47,55.84a1.49,1.49,0,1,1,2.09.27A1.5,1.5,0,0,1,290.47,55.84Z"/><path class="cls-21" d="M290.47,55.84a1.49,1.49,0,1,1,2.09.27A1.5,1.5,0,0,1,290.47,55.84Z"/><path class="cls-21" d="M16.79,63a1.5,1.5,0,1,1,2.1.27A1.5,1.5,0,0,1,16.79,63Z"/><path class="cls-21" d="M42,91.52a1.5,1.5,0,1,1,2.1.26A1.5,1.5,0,0,1,42,91.52Z"/><path class="cls-21" d="M81.31,58.37a1.5,1.5,0,1,1,2.11.27A1.5,1.5,0,0,1,81.31,58.37Z"/><path class="cls-21" d="M17.18,69.5a1.5,1.5,0,1,1,2.1.26A1.51,1.51,0,0,1,17.18,69.5Z"/><path class="cls-21" d="M23.24,89.89a1.5,1.5,0,1,1,2.1.26A1.5,1.5,0,0,1,23.24,89.89Z"/><path class="cls-21" d="M42,91.52a1.5,1.5,0,1,1,2.1.26A1.5,1.5,0,0,1,42,91.52Z"/><path class="cls-21" d="M52.44,130.19a1.5,1.5,0,1,1,2.1.27A1.5,1.5,0,0,1,52.44,130.19Z"/><path class="cls-21" d="M23.24,89.89a1.5,1.5,0,1,1,2.1.26A1.5,1.5,0,0,1,23.24,89.89Z"/><path class="cls-21" d="M150.22,85.69a1.5,1.5,0,1,1,2.1.26A1.49,1.49,0,0,1,150.22,85.69Z"/><path class="cls-21" d="M159.35,93.06a1.5,1.5,0,1,1,2.1.26A1.51,1.51,0,0,1,159.35,93.06Z"/><path class="cls-21" d="M158.45,64a1.5,1.5,0,1,1,2.1.26A1.49,1.49,0,0,1,158.45,64Z"/><path class="cls-21" d="M150.22,85.69a1.5,1.5,0,1,1,2.1.26A1.49,1.49,0,0,1,150.22,85.69Z"/><path class="cls-21" d="M119.14,100.47a1.51,1.51,0,0,1,.27-2.1,1.5,1.5,0,0,1,1.84,2.37A1.51,1.51,0,0,1,119.14,100.47Z"/><path class="cls-21" d="M159.35,93.06a1.5,1.5,0,1,1,2.1.26A1.51,1.51,0,0,1,159.35,93.06Z"/></g></g></g><g id="nopsis"><text class="cls-114" transform="translate(-375.63 157.23)">napsi<tspan class="cls-115" x="242.03" y="0">s</tspan></text></g></g></svg>